<?xml version="1.0" encoding="UTF-8" standalone="no"?>
<!DOCTYPE svg PUBLIC "-//W3C//DTD SVG 1.1//EN"
 "http://www.w3.org/Graphics/SVG/1.1/DTD/svg11.dtd">
<!-- Generated by graphviz version 6.0.1 (20220911.1526)
 -->
<!-- Title: kOf9Xk6y Pages: 1 -->
<svg width="405pt" height="260pt"
 viewBox="0.00 0.00 405.00 260.00" xmlns="http://www.w3.org/2000/svg" xmlns:xlink="http://www.w3.org/1999/xlink">
<g id="graph0" class="graph" transform="scale(1 1) rotate(0) translate(4 256)">
<title>kOf9Xk6y</title>
<polygon fill="white" stroke="none" points="-4,4 -4,-256 401,-256 401,4 -4,4"/>
<!-- my neuron cell -->
<g id="node1" class="node">
<title>my neuron cell</title>
<path fill="#10b981" stroke="#065f46" d="M238.5,-36C238.5,-36 182.5,-36 182.5,-36 176.5,-36 170.5,-30 170.5,-24 170.5,-24 170.5,-12 170.5,-12 170.5,-6 176.5,0 182.5,0 182.5,0 238.5,0 238.5,0 244.5,0 250.5,-6 250.5,-12 250.5,-12 250.5,-24 250.5,-24 250.5,-30 244.5,-36 238.5,-36"/>
<text text-anchor="middle" x="210.5" y="-15.5" font-family="Helvetica,sans-Serif" font-size="10.00">my neuron cell</text>
</g>
<!-- electrically responsive cell -->
<g id="node2" class="node">
<title>electrically responsive cell</title>
<path fill="honeydew" stroke="#065f46" d="M119,-180C119,-180 12,-180 12,-180 6,-180 0,-174 0,-168 0,-168 0,-156 0,-156 0,-150 6,-144 12,-144 12,-144 119,-144 119,-144 125,-144 131,-150 131,-156 131,-156 131,-168 131,-168 131,-174 125,-180 119,-180"/>
<text text-anchor="middle" x="65.5" y="-159.5" font-family="Helvetica,sans-Serif" font-size="10.00">electrically responsive cell</text>
</g>
<!-- neuron -->
<g id="node3" class="node">
<title>neuron</title>
<path fill="honeydew" stroke="#065f46" d="M225.5,-108C225.5,-108 195.5,-108 195.5,-108 189.5,-108 183.5,-102 183.5,-96 183.5,-96 183.5,-84 183.5,-84 183.5,-78 189.5,-72 195.5,-72 195.5,-72 225.5,-72 225.5,-72 231.5,-72 237.5,-78 237.5,-84 237.5,-84 237.5,-96 237.5,-96 237.5,-102 231.5,-108 225.5,-108"/>
<text text-anchor="middle" x="210.5" y="-87.5" font-family="Helvetica,sans-Serif" font-size="10.00">neuron</text>
</g>
<!-- electrically responsive cell&#45;&gt;neuron -->
<g id="edge1" class="edge">
<title>electrically responsive cell&#45;&gt;neuron</title>
<path fill="none" stroke="dimgrey" d="M100.97,-143.88C124.61,-132.46 155.43,-117.59 178.35,-106.52"/>
<polygon fill="dimgrey" stroke="dimgrey" points="179.37,-107.97 183.12,-104.22 177.85,-104.82 179.37,-107.97"/>
</g>
<!-- neuron&#45;&gt;my neuron cell -->
<g id="edge7" class="edge">
<title>neuron&#45;&gt;my neuron cell</title>
<path fill="none" stroke="dimgrey" d="M210.5,-71.7C210.5,-62.46 210.5,-50.98 210.5,-41.11"/>
<polygon fill="dimgrey" stroke="dimgrey" points="212.25,-41.1 210.5,-36.1 208.75,-41.1 212.25,-41.1"/>
</g>
<!-- neural cell -->
<g id="node4" class="node">
<title>neural cell</title>
<path fill="honeydew" stroke="#065f46" d="M339,-180C339,-180 302,-180 302,-180 296,-180 290,-174 290,-168 290,-168 290,-156 290,-156 290,-150 296,-144 302,-144 302,-144 339,-144 339,-144 345,-144 351,-150 351,-156 351,-156 351,-168 351,-168 351,-174 345,-180 339,-180"/>
<text text-anchor="middle" x="320.5" y="-159.5" font-family="Helvetica,sans-Serif" font-size="10.00">neural cell</text>
</g>
<!-- neural cell&#45;&gt;neuron -->
<g id="edge2" class="edge">
<title>neural cell&#45;&gt;neuron</title>
<path fill="none" stroke="dimgrey" d="M293.59,-143.88C278.01,-133.96 258.32,-121.43 242.01,-111.05"/>
<polygon fill="dimgrey" stroke="dimgrey" points="242.67,-109.4 237.51,-108.19 240.79,-112.35 242.67,-109.4"/>
</g>
<!-- electrically signaling cell -->
<g id="node5" class="node">
<title>electrically signaling cell</title>
<path fill="honeydew" stroke="#065f46" d="M259.5,-180C259.5,-180 161.5,-180 161.5,-180 155.5,-180 149.5,-174 149.5,-168 149.5,-168 149.5,-156 149.5,-156 149.5,-150 155.5,-144 161.5,-144 161.5,-144 259.5,-144 259.5,-144 265.5,-144 271.5,-150 271.5,-156 271.5,-156 271.5,-168 271.5,-168 271.5,-174 265.5,-180 259.5,-180"/>
<text text-anchor="middle" x="210.5" y="-159.5" font-family="Helvetica,sans-Serif" font-size="10.00">electrically signaling cell</text>
</g>
<!-- electrically signaling cell&#45;&gt;neuron -->
<g id="edge3" class="edge">
<title>electrically signaling cell&#45;&gt;neuron</title>
<path fill="none" stroke="dimgrey" d="M210.5,-143.7C210.5,-134.46 210.5,-122.98 210.5,-113.11"/>
<polygon fill="dimgrey" stroke="dimgrey" points="212.25,-113.1 210.5,-108.1 208.75,-113.1 212.25,-113.1"/>
</g>
<!-- animal cell -->
<g id="node6" class="node">
<title>animal cell</title>
<path fill="honeydew" stroke="#065f46" d="M298,-252C298,-252 259,-252 259,-252 253,-252 247,-246 247,-240 247,-240 247,-228 247,-228 247,-222 253,-216 259,-216 259,-216 298,-216 298,-216 304,-216 310,-222 310,-228 310,-228 310,-240 310,-240 310,-246 304,-252 298,-252"/>
<text text-anchor="middle" x="278.5" y="-231.5" font-family="Helvetica,sans-Serif" font-size="10.00">animal cell</text>
</g>
<!-- animal cell&#45;&gt;neural cell -->
<g id="edge4" class="edge">
<title>animal cell&#45;&gt;neural cell</title>
<path fill="none" stroke="dimgrey" d="M288.88,-215.7C294.53,-206.29 301.56,-194.56 307.56,-184.56"/>
<polygon fill="dimgrey" stroke="dimgrey" points="309.17,-185.29 310.24,-180.1 306.16,-183.49 309.17,-185.29"/>
</g>
<!-- somatic cell -->
<g id="node7" class="node">
<title>somatic cell</title>
<path fill="honeydew" stroke="#065f46" d="M385,-252C385,-252 340,-252 340,-252 334,-252 328,-246 328,-240 328,-240 328,-228 328,-228 328,-222 334,-216 340,-216 340,-216 385,-216 385,-216 391,-216 397,-222 397,-228 397,-228 397,-240 397,-240 397,-246 391,-252 385,-252"/>
<text text-anchor="middle" x="362.5" y="-231.5" font-family="Helvetica,sans-Serif" font-size="10.00">somatic cell</text>
</g>
<!-- somatic cell&#45;&gt;neural cell -->
<g id="edge5" class="edge">
<title>somatic cell&#45;&gt;neural cell</title>
<path fill="none" stroke="dimgrey" d="M352.12,-215.7C346.47,-206.29 339.44,-194.56 333.44,-184.56"/>
<polygon fill="dimgrey" stroke="dimgrey" points="334.84,-183.49 330.76,-180.1 331.83,-185.29 334.84,-183.49"/>
</g>
<!-- electrically active cell -->
<g id="node8" class="node">
<title>electrically active cell</title>
<path fill="honeydew" stroke="#065f46" d="M183.5,-252C183.5,-252 97.5,-252 97.5,-252 91.5,-252 85.5,-246 85.5,-240 85.5,-240 85.5,-228 85.5,-228 85.5,-222 91.5,-216 97.5,-216 97.5,-216 183.5,-216 183.5,-216 189.5,-216 195.5,-222 195.5,-228 195.5,-228 195.5,-240 195.5,-240 195.5,-246 189.5,-252 183.5,-252"/>
<text text-anchor="middle" x="140.5" y="-231.5" font-family="Helvetica,sans-Serif" font-size="10.00">electrically active cell</text>
</g>
<!-- electrically active cell&#45;&gt;electrically responsive cell -->
<g id="edge6" class="edge">
<title>electrically active cell&#45;&gt;electrically responsive cell</title>
<path fill="none" stroke="dimgrey" d="M121.96,-215.7C111.61,-206.03 98.64,-193.93 87.74,-183.76"/>
<polygon fill="dimgrey" stroke="dimgrey" points="88.68,-182.24 83.83,-180.1 86.29,-184.8 88.68,-182.24"/>
</g>
<!-- electrically active cell&#45;&gt;electrically signaling cell -->
<g id="edge8" class="edge">
<title>electrically active cell&#45;&gt;electrically signaling cell</title>
<path fill="none" stroke="dimgrey" d="M157.8,-215.7C167.47,-206.03 179.57,-193.93 189.74,-183.76"/>
<polygon fill="dimgrey" stroke="dimgrey" points="191.1,-184.88 193.4,-180.1 188.62,-182.4 191.1,-184.88"/>
</g>
</g>
</svg>
