<?xml version="1.0" encoding="UTF-8" standalone="no"?>
<!DOCTYPE svg PUBLIC "-//W3C//DTD SVG 1.1//EN"
 "http://www.w3.org/Graphics/SVG/1.1/DTD/svg11.dtd">
<!-- Generated by graphviz version 6.0.1 (20220911.1526)
 -->
<!-- Title: sJuDIL42 Pages: 1 -->
<svg width="405pt" height="260pt"
 viewBox="0.00 0.00 404.50 260.00" xmlns="http://www.w3.org/2000/svg" xmlns:xlink="http://www.w3.org/1999/xlink">
<g id="graph0" class="graph" transform="scale(1 1) rotate(0) translate(4 256)">
<title>sJuDIL42</title>
<polygon fill="white" stroke="none" points="-4,4 -4,-256 400.5,-256 400.5,4 -4,4"/>
<!-- my neuron cell -->
<g id="node1" class="node">
<title>my neuron cell</title>
<path fill="mediumseagreen" stroke="seagreen" d="M234,-36C234,-36 178,-36 178,-36 172,-36 166,-30 166,-24 166,-24 166,-12 166,-12 166,-6 172,0 178,0 178,0 234,0 234,0 240,0 246,-6 246,-12 246,-12 246,-24 246,-24 246,-30 240,-36 234,-36"/>
<text text-anchor="middle" x="206" y="-15.5" font-family="Helvetica,sans-Serif" font-size="10.00">my neuron cell</text>
</g>
<!-- electrically signaling cell -->
<g id="node2" class="node">
<title>electrically signaling cell</title>
<path fill="honeydew" stroke="seagreen" d="M110,-180C110,-180 12,-180 12,-180 6,-180 0,-174 0,-168 0,-168 0,-156 0,-156 0,-150 6,-144 12,-144 12,-144 110,-144 110,-144 116,-144 122,-150 122,-156 122,-156 122,-168 122,-168 122,-174 116,-180 110,-180"/>
<text text-anchor="middle" x="61" y="-159.5" font-family="Helvetica,sans-Serif" font-size="10.00">electrically signaling cell</text>
</g>
<!-- neuron -->
<g id="node3" class="node">
<title>neuron</title>
<path fill="honeydew" stroke="seagreen" d="M221,-108C221,-108 191,-108 191,-108 185,-108 179,-102 179,-96 179,-96 179,-84 179,-84 179,-78 185,-72 191,-72 191,-72 221,-72 221,-72 227,-72 233,-78 233,-84 233,-84 233,-96 233,-96 233,-102 227,-108 221,-108"/>
<text text-anchor="middle" x="206" y="-87.5" font-family="Helvetica,sans-Serif" font-size="10.00">neuron</text>
</g>
<!-- electrically signaling cell&#45;&gt;neuron -->
<g id="edge1" class="edge">
<title>electrically signaling cell&#45;&gt;neuron</title>
<path fill="none" stroke="dimgrey" d="M96.47,-143.88C120.11,-132.46 150.93,-117.59 173.85,-106.52"/>
<polygon fill="dimgrey" stroke="dimgrey" points="174.87,-107.97 178.62,-104.22 173.35,-104.82 174.87,-107.97"/>
</g>
<!-- neuron&#45;&gt;my neuron cell -->
<g id="edge8" class="edge">
<title>neuron&#45;&gt;my neuron cell</title>
<path fill="none" stroke="dimgrey" d="M206,-71.7C206,-62.46 206,-50.98 206,-41.11"/>
<polygon fill="dimgrey" stroke="dimgrey" points="207.75,-41.1 206,-36.1 204.25,-41.1 207.75,-41.1"/>
</g>
<!-- electrically responsive cell -->
<g id="node4" class="node">
<title>electrically responsive cell</title>
<path fill="honeydew" stroke="seagreen" d="M259.5,-180C259.5,-180 152.5,-180 152.5,-180 146.5,-180 140.5,-174 140.5,-168 140.5,-168 140.5,-156 140.5,-156 140.5,-150 146.5,-144 152.5,-144 152.5,-144 259.5,-144 259.5,-144 265.5,-144 271.5,-150 271.5,-156 271.5,-156 271.5,-168 271.5,-168 271.5,-174 265.5,-180 259.5,-180"/>
<text text-anchor="middle" x="206" y="-159.5" font-family="Helvetica,sans-Serif" font-size="10.00">electrically responsive cell</text>
</g>
<!-- electrically responsive cell&#45;&gt;neuron -->
<g id="edge2" class="edge">
<title>electrically responsive cell&#45;&gt;neuron</title>
<path fill="none" stroke="dimgrey" d="M206,-143.7C206,-134.46 206,-122.98 206,-113.11"/>
<polygon fill="dimgrey" stroke="dimgrey" points="207.75,-113.1 206,-108.1 204.25,-113.1 207.75,-113.1"/>
</g>
<!-- neural cell -->
<g id="node5" class="node">
<title>neural cell</title>
<path fill="honeydew" stroke="seagreen" d="M338.5,-180C338.5,-180 301.5,-180 301.5,-180 295.5,-180 289.5,-174 289.5,-168 289.5,-168 289.5,-156 289.5,-156 289.5,-150 295.5,-144 301.5,-144 301.5,-144 338.5,-144 338.5,-144 344.5,-144 350.5,-150 350.5,-156 350.5,-156 350.5,-168 350.5,-168 350.5,-174 344.5,-180 338.5,-180"/>
<text text-anchor="middle" x="320" y="-159.5" font-family="Helvetica,sans-Serif" font-size="10.00">neural cell</text>
</g>
<!-- neural cell&#45;&gt;neuron -->
<g id="edge3" class="edge">
<title>neural cell&#45;&gt;neuron</title>
<path fill="none" stroke="dimgrey" d="M292.11,-143.88C275.58,-133.73 254.59,-120.84 237.47,-110.32"/>
<polygon fill="dimgrey" stroke="dimgrey" points="238.38,-108.83 233.21,-107.71 236.55,-111.81 238.38,-108.83"/>
</g>
<!-- animal cell -->
<g id="node6" class="node">
<title>animal cell</title>
<path fill="honeydew" stroke="seagreen" d="M297.5,-252C297.5,-252 258.5,-252 258.5,-252 252.5,-252 246.5,-246 246.5,-240 246.5,-240 246.5,-228 246.5,-228 246.5,-222 252.5,-216 258.5,-216 258.5,-216 297.5,-216 297.5,-216 303.5,-216 309.5,-222 309.5,-228 309.5,-228 309.5,-240 309.5,-240 309.5,-246 303.5,-252 297.5,-252"/>
<text text-anchor="middle" x="278" y="-231.5" font-family="Helvetica,sans-Serif" font-size="10.00">animal cell</text>
</g>
<!-- animal cell&#45;&gt;neural cell -->
<g id="edge4" class="edge">
<title>animal cell&#45;&gt;neural cell</title>
<path fill="none" stroke="dimgrey" d="M288.38,-215.7C294.03,-206.29 301.06,-194.56 307.06,-184.56"/>
<polygon fill="dimgrey" stroke="dimgrey" points="308.67,-185.29 309.74,-180.1 305.66,-183.49 308.67,-185.29"/>
</g>
<!-- somatic cell -->
<g id="node7" class="node">
<title>somatic cell</title>
<path fill="honeydew" stroke="seagreen" d="M384.5,-252C384.5,-252 339.5,-252 339.5,-252 333.5,-252 327.5,-246 327.5,-240 327.5,-240 327.5,-228 327.5,-228 327.5,-222 333.5,-216 339.5,-216 339.5,-216 384.5,-216 384.5,-216 390.5,-216 396.5,-222 396.5,-228 396.5,-228 396.5,-240 396.5,-240 396.5,-246 390.5,-252 384.5,-252"/>
<text text-anchor="middle" x="362" y="-231.5" font-family="Helvetica,sans-Serif" font-size="10.00">somatic cell</text>
</g>
<!-- somatic cell&#45;&gt;neural cell -->
<g id="edge5" class="edge">
<title>somatic cell&#45;&gt;neural cell</title>
<path fill="none" stroke="dimgrey" d="M351.62,-215.7C345.97,-206.29 338.94,-194.56 332.94,-184.56"/>
<polygon fill="dimgrey" stroke="dimgrey" points="334.34,-183.49 330.26,-180.1 331.33,-185.29 334.34,-183.49"/>
</g>
<!-- electrically active cell -->
<g id="node8" class="node">
<title>electrically active cell</title>
<path fill="honeydew" stroke="seagreen" d="M181,-252C181,-252 95,-252 95,-252 89,-252 83,-246 83,-240 83,-240 83,-228 83,-228 83,-222 89,-216 95,-216 95,-216 181,-216 181,-216 187,-216 193,-222 193,-228 193,-228 193,-240 193,-240 193,-246 187,-252 181,-252"/>
<text text-anchor="middle" x="138" y="-231.5" font-family="Helvetica,sans-Serif" font-size="10.00">electrically active cell</text>
</g>
<!-- electrically active cell&#45;&gt;electrically signaling cell -->
<g id="edge7" class="edge">
<title>electrically active cell&#45;&gt;electrically signaling cell</title>
<path fill="none" stroke="dimgrey" d="M118.97,-215.7C108.24,-205.95 94.79,-193.71 83.54,-183.49"/>
<polygon fill="dimgrey" stroke="dimgrey" points="84.69,-182.17 79.81,-180.1 82.34,-184.76 84.69,-182.17"/>
</g>
<!-- electrically active cell&#45;&gt;electrically responsive cell -->
<g id="edge6" class="edge">
<title>electrically active cell&#45;&gt;electrically responsive cell</title>
<path fill="none" stroke="dimgrey" d="M154.81,-215.7C164.2,-206.03 175.96,-193.93 185.84,-183.76"/>
<polygon fill="dimgrey" stroke="dimgrey" points="187.16,-184.91 189.38,-180.1 184.65,-182.47 187.16,-184.91"/>
</g>
</g>
</svg>
