<?xml version="1.0" encoding="UTF-8" standalone="no"?>
<!DOCTYPE svg PUBLIC "-//W3C//DTD SVG 1.1//EN"
 "http://www.w3.org/Graphics/SVG/1.1/DTD/svg11.dtd">
<!-- Generated by graphviz version 6.0.1 (20220911.1526)
 -->
<!-- Title: GCBGsuZM Pages: 1 -->
<svg width="402pt" height="188pt"
 viewBox="0.00 0.00 402.00 188.00" xmlns="http://www.w3.org/2000/svg" xmlns:xlink="http://www.w3.org/1999/xlink">
<g id="graph0" class="graph" transform="scale(1 1) rotate(0) translate(4 184)">
<title>GCBGsuZM</title>
<polygon fill="white" stroke="none" points="-4,4 -4,-184 398,-184 398,4 -4,4"/>
<!-- neuron -->
<g id="node1" class="node">
<title>neuron</title>
<path fill="mediumseagreen" stroke="seagreen" d="M225.5,-36C225.5,-36 195.5,-36 195.5,-36 189.5,-36 183.5,-30 183.5,-24 183.5,-24 183.5,-12 183.5,-12 183.5,-6 189.5,0 195.5,0 195.5,0 225.5,0 225.5,0 231.5,0 237.5,-6 237.5,-12 237.5,-12 237.5,-24 237.5,-24 237.5,-30 231.5,-36 225.5,-36"/>
<text text-anchor="middle" x="210.5" y="-15.5" font-family="Helvetica,sans-Serif" font-size="10.00">neuron</text>
</g>
<!-- electrically responsive cell -->
<g id="node2" class="node">
<title>electrically responsive cell</title>
<path fill="honeydew" stroke="seagreen" d="M119,-108C119,-108 12,-108 12,-108 6,-108 0,-102 0,-96 0,-96 0,-84 0,-84 0,-78 6,-72 12,-72 12,-72 119,-72 119,-72 125,-72 131,-78 131,-84 131,-84 131,-96 131,-96 131,-102 125,-108 119,-108"/>
<text text-anchor="middle" x="65.5" y="-87.5" font-family="Helvetica,sans-Serif" font-size="10.00">electrically responsive cell</text>
</g>
<!-- electrically responsive cell&#45;&gt;neuron -->
<g id="edge1" class="edge">
<title>electrically responsive cell&#45;&gt;neuron</title>
<path fill="none" stroke="dimgrey" d="M100.97,-71.88C124.61,-60.46 155.43,-45.59 178.35,-34.52"/>
<polygon fill="dimgrey" stroke="dimgrey" points="179.37,-35.97 183.12,-32.22 177.85,-32.82 179.37,-35.97"/>
</g>
<!-- neural cell -->
<g id="node3" class="node">
<title>neural cell</title>
<path fill="honeydew" stroke="seagreen" d="M339,-108C339,-108 302,-108 302,-108 296,-108 290,-102 290,-96 290,-96 290,-84 290,-84 290,-78 296,-72 302,-72 302,-72 339,-72 339,-72 345,-72 351,-78 351,-84 351,-84 351,-96 351,-96 351,-102 345,-108 339,-108"/>
<text text-anchor="middle" x="320.5" y="-87.5" font-family="Helvetica,sans-Serif" font-size="10.00">neural cell</text>
</g>
<!-- neural cell&#45;&gt;neuron -->
<g id="edge2" class="edge">
<title>neural cell&#45;&gt;neuron</title>
<path fill="none" stroke="dimgrey" d="M293.59,-71.88C278.01,-61.96 258.32,-49.43 242.01,-39.05"/>
<polygon fill="dimgrey" stroke="dimgrey" points="242.67,-37.4 237.51,-36.19 240.79,-40.35 242.67,-37.4"/>
</g>
<!-- electrically signaling cell -->
<g id="node4" class="node">
<title>electrically signaling cell</title>
<path fill="honeydew" stroke="seagreen" d="M259.5,-108C259.5,-108 161.5,-108 161.5,-108 155.5,-108 149.5,-102 149.5,-96 149.5,-96 149.5,-84 149.5,-84 149.5,-78 155.5,-72 161.5,-72 161.5,-72 259.5,-72 259.5,-72 265.5,-72 271.5,-78 271.5,-84 271.5,-84 271.5,-96 271.5,-96 271.5,-102 265.5,-108 259.5,-108"/>
<text text-anchor="middle" x="210.5" y="-87.5" font-family="Helvetica,sans-Serif" font-size="10.00">electrically signaling cell</text>
</g>
<!-- electrically signaling cell&#45;&gt;neuron -->
<g id="edge3" class="edge">
<title>electrically signaling cell&#45;&gt;neuron</title>
<path fill="none" stroke="dimgrey" d="M210.5,-71.7C210.5,-62.46 210.5,-50.98 210.5,-41.11"/>
<polygon fill="dimgrey" stroke="dimgrey" points="212.25,-41.1 210.5,-36.1 208.75,-41.1 212.25,-41.1"/>
</g>
<!-- somatic cell -->
<g id="node5" class="node">
<title>somatic cell</title>
<path fill="honeydew" stroke="seagreen" d="M301,-180C301,-180 256,-180 256,-180 250,-180 244,-174 244,-168 244,-168 244,-156 244,-156 244,-150 250,-144 256,-144 256,-144 301,-144 301,-144 307,-144 313,-150 313,-156 313,-156 313,-168 313,-168 313,-174 307,-180 301,-180"/>
<text text-anchor="middle" x="278.5" y="-159.5" font-family="Helvetica,sans-Serif" font-size="10.00">somatic cell</text>
</g>
<!-- somatic cell&#45;&gt;neural cell -->
<g id="edge4" class="edge">
<title>somatic cell&#45;&gt;neural cell</title>
<path fill="none" stroke="dimgrey" d="M288.88,-143.7C294.53,-134.29 301.56,-122.56 307.56,-112.56"/>
<polygon fill="dimgrey" stroke="dimgrey" points="309.17,-113.29 310.24,-108.1 306.16,-111.49 309.17,-113.29"/>
</g>
<!-- animal cell -->
<g id="node6" class="node">
<title>animal cell</title>
<path fill="honeydew" stroke="seagreen" d="M382,-180C382,-180 343,-180 343,-180 337,-180 331,-174 331,-168 331,-168 331,-156 331,-156 331,-150 337,-144 343,-144 343,-144 382,-144 382,-144 388,-144 394,-150 394,-156 394,-156 394,-168 394,-168 394,-174 388,-180 382,-180"/>
<text text-anchor="middle" x="362.5" y="-159.5" font-family="Helvetica,sans-Serif" font-size="10.00">animal cell</text>
</g>
<!-- animal cell&#45;&gt;neural cell -->
<g id="edge5" class="edge">
<title>animal cell&#45;&gt;neural cell</title>
<path fill="none" stroke="dimgrey" d="M352.12,-143.7C346.47,-134.29 339.44,-122.56 333.44,-112.56"/>
<polygon fill="dimgrey" stroke="dimgrey" points="334.84,-111.49 330.76,-108.1 331.83,-113.29 334.84,-111.49"/>
</g>
<!-- electrically active cell -->
<g id="node7" class="node">
<title>electrically active cell</title>
<path fill="honeydew" stroke="seagreen" d="M182.5,-180C182.5,-180 96.5,-180 96.5,-180 90.5,-180 84.5,-174 84.5,-168 84.5,-168 84.5,-156 84.5,-156 84.5,-150 90.5,-144 96.5,-144 96.5,-144 182.5,-144 182.5,-144 188.5,-144 194.5,-150 194.5,-156 194.5,-156 194.5,-168 194.5,-168 194.5,-174 188.5,-180 182.5,-180"/>
<text text-anchor="middle" x="139.5" y="-159.5" font-family="Helvetica,sans-Serif" font-size="10.00">electrically active cell</text>
</g>
<!-- electrically active cell&#45;&gt;electrically responsive cell -->
<g id="edge6" class="edge">
<title>electrically active cell&#45;&gt;electrically responsive cell</title>
<path fill="none" stroke="dimgrey" d="M121.21,-143.7C110.99,-134.03 98.19,-121.93 87.44,-111.76"/>
<polygon fill="dimgrey" stroke="dimgrey" points="88.42,-110.27 83.58,-108.1 86.01,-112.81 88.42,-110.27"/>
</g>
<!-- electrically active cell&#45;&gt;electrically signaling cell -->
<g id="edge7" class="edge">
<title>electrically active cell&#45;&gt;electrically signaling cell</title>
<path fill="none" stroke="dimgrey" d="M157.05,-143.7C166.85,-134.03 179.13,-121.93 189.45,-111.76"/>
<polygon fill="dimgrey" stroke="dimgrey" points="190.82,-112.86 193.15,-108.1 188.36,-110.37 190.82,-112.86"/>
</g>
</g>
</svg>
