<?xml version="1.0" encoding="UTF-8" standalone="no"?>
<!DOCTYPE svg PUBLIC "-//W3C//DTD SVG 1.1//EN"
 "http://www.w3.org/Graphics/SVG/1.1/DTD/svg11.dtd">
<!-- Generated by graphviz version 2.43.0 (0)
 -->
<!-- Title: kBnIFvU8edZE3okstaon Pages: 1 -->
<svg width="1083pt" height="688pt"
 viewBox="0.00 0.00 1082.50 688.00" xmlns="http://www.w3.org/2000/svg" xmlns:xlink="http://www.w3.org/1999/xlink">
<g id="graph0" class="graph" transform="scale(1 1) rotate(0) translate(4 684)">
<title>kBnIFvU8edZE3okstaon</title>
<polygon fill="white" stroke="transparent" points="-4,4 -4,-684 1078.5,-684 1078.5,4 -4,4"/>
<!-- jwGBJKlAogSfQ8WHgL0Q -->
<g id="node1" class="node">
<title>jwGBJKlAogSfQ8WHgL0Q</title>
<path fill="gainsboro" stroke="#065f46" d="M170,-522C170,-522 21,-522 21,-522 15,-522 9,-516 9,-510 9,-510 9,-486 9,-486 9,-480 15,-474 21,-474 21,-474 170,-474 170,-474 176,-474 182,-480 182,-486 182,-486 182,-510 182,-510 182,-516 176,-522 170,-522"/>
<text text-anchor="start" x="19.5" y="-511" font-family="Helvetica,sans-Serif" font-size="10.00">🖥️ Upload GWS CRISPRa result</text>
<text text-anchor="start" x="26" y="-501" font-family="Monospace" font-size="10.00" fill="GREY">id=jwGBJKlAogSfQ8WHgL0Q</text>
<text text-anchor="start" x="20" y="-491" font-family="Monospace" font-size="10.00" fill="GREY">type=app, user=Test User1</text>
<text text-anchor="start" x="17" y="-481" font-family="Monospace" font-size="10.00" fill="GREY">run_at=2023&#45;08&#45;05 17:37:54</text>
</g>
<!-- kbtOh5nIellKchLfvgva -->
<g id="node2" class="node">
<title>kbtOh5nIellKchLfvgva</title>
<path fill="honeydew" stroke="#065f46" d="M179,-438C179,-438 12,-438 12,-438 6,-438 0,-432 0,-426 0,-426 0,-412 0,-412 0,-406 6,-400 12,-400 12,-400 179,-400 179,-400 185,-400 191,-406 191,-412 191,-412 191,-426 191,-426 191,-432 185,-438 179,-438"/>
<text text-anchor="start" x="8" y="-427" font-family="Helvetica,sans-Serif" font-size="10.00">Raw data of schmidt22 crispra GWS</text>
<text text-anchor="start" x="26" y="-417" font-family="Monospace" font-size="10.00" fill="GREY">id=kbtOh5nIellKchLfvgva</text>
<text text-anchor="start" x="62" y="-407" font-family="Monospace" font-size="10.00" fill="GREY">suffix=.csv</text>
</g>
<!-- jwGBJKlAogSfQ8WHgL0Q&#45;&gt;kbtOh5nIellKchLfvgva -->
<g id="edge1" class="edge">
<title>jwGBJKlAogSfQ8WHgL0Q&#45;&gt;kbtOh5nIellKchLfvgva</title>
<path fill="none" stroke="dimgrey" d="M95.5,-473.9C95.5,-464.33 95.5,-453.24 95.5,-443.62"/>
<polygon fill="dimgrey" stroke="dimgrey" points="97.25,-443.44 95.5,-438.44 93.75,-443.44 97.25,-443.44"/>
</g>
<!-- jvuLZRQCt0MU19UXf3Sc -->
<g id="node16" class="node">
<title>jvuLZRQCt0MU19UXf3Sc</title>
<path fill="gainsboro" stroke="#065f46" d="M346,-364C346,-364 173,-364 173,-364 167,-364 161,-358 161,-352 161,-352 161,-328 161,-328 161,-322 167,-316 173,-316 173,-316 346,-316 346,-316 352,-316 358,-322 358,-328 358,-328 358,-352 358,-352 358,-358 352,-364 346,-364"/>
<text text-anchor="start" x="196" y="-353" font-family="Helvetica,sans-Serif" font-size="10.00">📔 GWS CRIPSRa analysis</text>
<text text-anchor="start" x="190" y="-343" font-family="Monospace" font-size="10.00" fill="GREY">id=jvuLZRQCt0MU19UXf3Sc</text>
<text text-anchor="start" x="169" y="-333" font-family="Monospace" font-size="10.00" fill="GREY">type=notebook, user=Test User2</text>
<text text-anchor="start" x="181" y="-323" font-family="Monospace" font-size="10.00" fill="GREY">run_at=2023&#45;08&#45;05 17:37:56</text>
</g>
<!-- kbtOh5nIellKchLfvgva&#45;&gt;jvuLZRQCt0MU19UXf3Sc -->
<g id="edge14" class="edge">
<title>kbtOh5nIellKchLfvgva&#45;&gt;jvuLZRQCt0MU19UXf3Sc</title>
<path fill="none" stroke="dimgrey" d="M133.95,-399.95C155.34,-389.9 182.3,-377.25 205.75,-366.24"/>
<polygon fill="dimgrey" stroke="dimgrey" points="206.61,-367.77 210.39,-364.06 205.12,-364.6 206.61,-367.77"/>
</g>
<!-- Ek30xpaeftSGUQlJoYIr -->
<g id="node3" class="node">
<title>Ek30xpaeftSGUQlJoYIr</title>
<path fill="honeydew" stroke="#065f46" d="M540,-280C540,-280 409,-280 409,-280 403,-280 397,-274 397,-268 397,-268 397,-254 397,-254 397,-248 403,-242 409,-242 409,-242 540,-242 540,-242 546,-242 552,-248 552,-254 552,-254 552,-268 552,-268 552,-274 546,-280 540,-280"/>
<text text-anchor="start" x="430.5" y="-269" font-family="Helvetica,sans-Serif" font-size="10.00">perturbseq counts</text>
<text text-anchor="start" x="405" y="-259" font-family="Monospace" font-size="10.00" fill="GREY">id=Ek30xpaeftSGUQlJoYIr</text>
<text text-anchor="start" x="438" y="-249" font-family="Monospace" font-size="10.00" fill="GREY">suffix=.h5ad</text>
</g>
<!-- bm80fOIjo0UOnzqZ53YH -->
<g id="node4" class="node">
<title>bm80fOIjo0UOnzqZ53YH</title>
<path fill="gainsboro" stroke="#065f46" d="M519.5,-206C519.5,-206 213.5,-206 213.5,-206 207.5,-206 201.5,-200 201.5,-194 201.5,-194 201.5,-170 201.5,-170 201.5,-164 207.5,-158 213.5,-158 213.5,-158 519.5,-158 519.5,-158 525.5,-158 531.5,-164 531.5,-170 531.5,-170 531.5,-194 531.5,-194 531.5,-200 525.5,-206 519.5,-206"/>
<text text-anchor="start" x="209.5" y="-195" font-family="Helvetica,sans-Serif" font-size="10.00">📔 Perform single cell analysis, integrating with CRISPRa screen</text>
<text text-anchor="start" x="297" y="-185" font-family="Monospace" font-size="10.00" fill="GREY">id=bm80fOIjo0UOnzqZ53YH</text>
<text text-anchor="start" x="276" y="-175" font-family="Monospace" font-size="10.00" fill="GREY">type=notebook, user=Test User2</text>
<text text-anchor="start" x="288" y="-165" font-family="Monospace" font-size="10.00" fill="GREY">run_at=2023&#45;08&#45;05 17:37:56</text>
</g>
<!-- Ek30xpaeftSGUQlJoYIr&#45;&gt;bm80fOIjo0UOnzqZ53YH -->
<g id="edge2" class="edge">
<title>Ek30xpaeftSGUQlJoYIr&#45;&gt;bm80fOIjo0UOnzqZ53YH</title>
<path fill="none" stroke="dimgrey" d="M449.18,-241.95C435.5,-232.2 418.37,-219.98 403.25,-209.2"/>
<polygon fill="dimgrey" stroke="dimgrey" points="404.13,-207.68 399.04,-206.2 402.1,-210.53 404.13,-207.68"/>
</g>
<!-- jetwxkAAK0F9rfcuXxtJ -->
<g id="node6" class="node">
<title>jetwxkAAK0F9rfcuXxtJ</title>
<path fill="honeydew" stroke="#065f46" d="M326,-122C326,-122 149,-122 149,-122 143,-122 137,-116 137,-110 137,-110 137,-96 137,-96 137,-90 143,-84 149,-84 149,-84 326,-84 326,-84 332,-84 338,-90 338,-96 338,-96 338,-110 338,-110 338,-116 332,-122 326,-122"/>
<text text-anchor="start" x="145" y="-111" font-family="Helvetica,sans-Serif" font-size="10.00">figures/umap_fig1_score&#45;wgs&#45;hits.png</text>
<text text-anchor="start" x="168" y="-101" font-family="Monospace" font-size="10.00" fill="GREY">id=jetwxkAAK0F9rfcuXxtJ</text>
<text text-anchor="start" x="204" y="-91" font-family="Monospace" font-size="10.00" fill="GREY">suffix=.png</text>
</g>
<!-- bm80fOIjo0UOnzqZ53YH&#45;&gt;jetwxkAAK0F9rfcuXxtJ -->
<g id="edge4" class="edge">
<title>bm80fOIjo0UOnzqZ53YH&#45;&gt;jetwxkAAK0F9rfcuXxtJ</title>
<path fill="none" stroke="dimgrey" d="M327.8,-157.9C310.29,-147.45 289.76,-135.19 272.7,-125.01"/>
<polygon fill="dimgrey" stroke="dimgrey" points="273.17,-123.25 267.98,-122.19 271.38,-126.26 273.17,-123.25"/>
</g>
<!-- kBnIFvU8edZE3okstaon -->
<g id="node7" class="node">
<title>kBnIFvU8edZE3okstaon</title>
<path fill="#10b981" stroke="#065f46" d="M624.5,-122C624.5,-122 368.5,-122 368.5,-122 362.5,-122 356.5,-116 356.5,-110 356.5,-110 356.5,-96 356.5,-96 356.5,-90 362.5,-84 368.5,-84 368.5,-84 624.5,-84 624.5,-84 630.5,-84 636.5,-90 636.5,-96 636.5,-96 636.5,-110 636.5,-110 636.5,-116 630.5,-122 624.5,-122"/>
<text text-anchor="start" x="364.5" y="-111" font-family="Helvetica,sans-Serif" font-size="10.00">figures/matrixplot_fig2_score&#45;wgs&#45;hits&#45;per&#45;cluster.png</text>
<text text-anchor="start" x="427" y="-101" font-family="Monospace" font-size="10.00" fill="GREY">id=kBnIFvU8edZE3okstaon</text>
<text text-anchor="start" x="463" y="-91" font-family="Monospace" font-size="10.00" fill="GREY">suffix=.png</text>
</g>
<!-- bm80fOIjo0UOnzqZ53YH&#45;&gt;kBnIFvU8edZE3okstaon -->
<g id="edge5" class="edge">
<title>bm80fOIjo0UOnzqZ53YH&#45;&gt;kBnIFvU8edZE3okstaon</title>
<path fill="none" stroke="dimgrey" d="M405.5,-157.9C423.29,-147.36 444.19,-134.98 461.47,-124.75"/>
<polygon fill="dimgrey" stroke="dimgrey" points="462.37,-126.25 465.78,-122.19 460.59,-123.24 462.37,-126.25"/>
</g>
<!-- 5Hj5NASjYfLRAWfF0qOl -->
<g id="node5" class="node">
<title>5Hj5NASjYfLRAWfF0qOl</title>
<path fill="honeydew" stroke="#065f46" d="M351,-280C351,-280 198,-280 198,-280 192,-280 186,-274 186,-268 186,-268 186,-254 186,-254 186,-248 192,-242 198,-242 198,-242 351,-242 351,-242 357,-242 363,-248 363,-254 363,-254 363,-268 363,-268 363,-274 357,-280 351,-280"/>
<text text-anchor="start" x="194" y="-269" font-family="Helvetica,sans-Serif" font-size="10.00">hits from schmidt22 crispra GWS</text>
<text text-anchor="start" x="205" y="-259" font-family="Monospace" font-size="10.00" fill="GREY">id=5Hj5NASjYfLRAWfF0qOl</text>
<text text-anchor="start" x="229" y="-249" font-family="Monospace" font-size="10.00" fill="GREY">suffix=.parquet</text>
</g>
<!-- 5Hj5NASjYfLRAWfF0qOl&#45;&gt;bm80fOIjo0UOnzqZ53YH -->
<g id="edge3" class="edge">
<title>5Hj5NASjYfLRAWfF0qOl&#45;&gt;bm80fOIjo0UOnzqZ53YH</title>
<path fill="none" stroke="dimgrey" d="M296.3,-241.75C307.86,-232.08 322.27,-220.02 335.01,-209.35"/>
<polygon fill="dimgrey" stroke="dimgrey" points="336.2,-210.64 338.91,-206.09 333.96,-207.96 336.2,-210.64"/>
</g>
<!-- 25AzwtmP3m77i2ZlT8Tx -->
<g id="node14" class="node">
<title>25AzwtmP3m77i2ZlT8Tx</title>
<path fill="gainsboro" stroke="#065f46" d="M583,-48C583,-48 410,-48 410,-48 404,-48 398,-42 398,-36 398,-36 398,-12 398,-12 398,-6 404,0 410,0 410,0 583,0 583,0 589,0 595,-6 595,-12 595,-12 595,-36 595,-36 595,-42 589,-48 583,-48"/>
<text text-anchor="start" x="443.5" y="-37" font-family="Helvetica,sans-Serif" font-size="10.00">📔 Track data flow</text>
<text text-anchor="start" x="427" y="-27" font-family="Monospace" font-size="10.00" fill="GREY">id=25AzwtmP3m77i2ZlT8Tx</text>
<text text-anchor="start" x="406" y="-17" font-family="Monospace" font-size="10.00" fill="GREY">type=notebook, user=Test User2</text>
<text text-anchor="start" x="418" y="-7" font-family="Monospace" font-size="10.00" fill="GREY">run_at=2023&#45;08&#45;05 17:37:59</text>
</g>
<!-- kBnIFvU8edZE3okstaon&#45;&gt;25AzwtmP3m77i2ZlT8Tx -->
<g id="edge11" class="edge">
<title>kBnIFvU8edZE3okstaon&#45;&gt;25AzwtmP3m77i2ZlT8Tx</title>
<path fill="none" stroke="dimgrey" d="M496.5,-83.75C496.5,-74.66 496.5,-63.47 496.5,-53.3"/>
<polygon fill="dimgrey" stroke="dimgrey" points="498.25,-53.09 496.5,-48.09 494.75,-53.09 498.25,-53.09"/>
</g>
<!-- XQNSpiNXB7CoIbDpOrjO -->
<g id="node8" class="node">
<title>XQNSpiNXB7CoIbDpOrjO</title>
<path fill="honeydew" stroke="#065f46" d="M617.5,-596C617.5,-596 461.5,-596 461.5,-596 455.5,-596 449.5,-590 449.5,-584 449.5,-584 449.5,-570 449.5,-570 449.5,-564 455.5,-558 461.5,-558 461.5,-558 617.5,-558 617.5,-558 623.5,-558 629.5,-564 629.5,-570 629.5,-570 629.5,-584 629.5,-584 629.5,-590 623.5,-596 617.5,-596"/>
<text text-anchor="start" x="457.5" y="-585" font-family="Helvetica,sans-Serif" font-size="10.00">fastq/perturbseq_R1_001.fastq.gz</text>
<text text-anchor="start" x="470" y="-575" font-family="Monospace" font-size="10.00" fill="GREY">id=XQNSpiNXB7CoIbDpOrjO</text>
<text text-anchor="start" x="491" y="-565" font-family="Monospace" font-size="10.00" fill="GREY">suffix=.fastq.gz</text>
</g>
<!-- hpDFcwRgP1alzl7VoM2g -->
<g id="node9" class="node">
<title>hpDFcwRgP1alzl7VoM2g</title>
<path fill="gainsboro" stroke="#065f46" d="M725,-522C725,-522 552,-522 552,-522 546,-522 540,-516 540,-510 540,-510 540,-486 540,-486 540,-480 546,-474 552,-474 552,-474 725,-474 725,-474 731,-474 737,-480 737,-486 737,-486 737,-510 737,-510 737,-516 731,-522 725,-522"/>
<text text-anchor="start" x="602" y="-511" font-family="Helvetica,sans-Serif" font-size="10.00">🧩 Cell Ranger</text>
<text text-anchor="start" x="569" y="-501" font-family="Monospace" font-size="10.00" fill="GREY">id=hpDFcwRgP1alzl7VoM2g</text>
<text text-anchor="start" x="548" y="-491" font-family="Monospace" font-size="10.00" fill="GREY">type=pipeline, user=Test User2</text>
<text text-anchor="start" x="560" y="-481" font-family="Monospace" font-size="10.00" fill="GREY">run_at=2023&#45;08&#45;05 17:37:52</text>
</g>
<!-- XQNSpiNXB7CoIbDpOrjO&#45;&gt;hpDFcwRgP1alzl7VoM2g -->
<g id="edge6" class="edge">
<title>XQNSpiNXB7CoIbDpOrjO&#45;&gt;hpDFcwRgP1alzl7VoM2g</title>
<path fill="none" stroke="dimgrey" d="M562.71,-557.95C575.14,-548.28 590.69,-536.19 604.46,-525.48"/>
<polygon fill="dimgrey" stroke="dimgrey" points="605.8,-526.65 608.67,-522.2 603.65,-523.89 605.8,-526.65"/>
</g>
<!-- cMfJ0YMSYe6ABSHpuB2e -->
<g id="node11" class="node">
<title>cMfJ0YMSYe6ABSHpuB2e</title>
<path fill="honeydew" stroke="#065f46" d="M470,-438C470,-438 221,-438 221,-438 215,-438 209,-432 209,-426 209,-426 209,-412 209,-412 209,-406 215,-400 221,-400 221,-400 470,-400 470,-400 476,-400 482,-406 482,-412 482,-412 482,-426 482,-426 482,-432 476,-438 470,-438"/>
<text text-anchor="start" x="217" y="-427" font-family="Helvetica,sans-Serif" font-size="10.00">perturbseq/filtered_feature_bc_matrix/matrix.mtx.gz</text>
<text text-anchor="start" x="276" y="-417" font-family="Monospace" font-size="10.00" fill="GREY">id=cMfJ0YMSYe6ABSHpuB2e</text>
<text text-anchor="start" x="303" y="-407" font-family="Monospace" font-size="10.00" fill="GREY">suffix=.mtx.gz</text>
</g>
<!-- hpDFcwRgP1alzl7VoM2g&#45;&gt;cMfJ0YMSYe6ABSHpuB2e -->
<g id="edge8" class="edge">
<title>hpDFcwRgP1alzl7VoM2g&#45;&gt;cMfJ0YMSYe6ABSHpuB2e</title>
<path fill="none" stroke="dimgrey" d="M550.59,-473.9C508.81,-462.92 459.41,-449.94 419.57,-439.47"/>
<polygon fill="dimgrey" stroke="dimgrey" points="419.54,-437.65 414.26,-438.07 418.65,-441.03 419.54,-437.65"/>
</g>
<!-- tjHorHV5omgvbPRqOwtB -->
<g id="node12" class="node">
<title>tjHorHV5omgvbPRqOwtB</title>
<path fill="honeydew" stroke="#065f46" d="M764.5,-438C764.5,-438 512.5,-438 512.5,-438 506.5,-438 500.5,-432 500.5,-426 500.5,-426 500.5,-412 500.5,-412 500.5,-406 506.5,-400 512.5,-400 512.5,-400 764.5,-400 764.5,-400 770.5,-400 776.5,-406 776.5,-412 776.5,-412 776.5,-426 776.5,-426 776.5,-432 770.5,-438 764.5,-438"/>
<text text-anchor="start" x="508.5" y="-427" font-family="Helvetica,sans-Serif" font-size="10.00">perturbseq/filtered_feature_bc_matrix/features.tsv.gz</text>
<text text-anchor="start" x="569" y="-417" font-family="Monospace" font-size="10.00" fill="GREY">id=tjHorHV5omgvbPRqOwtB</text>
<text text-anchor="start" x="596" y="-407" font-family="Monospace" font-size="10.00" fill="GREY">suffix=.tsv.gz</text>
</g>
<!-- hpDFcwRgP1alzl7VoM2g&#45;&gt;tjHorHV5omgvbPRqOwtB -->
<g id="edge9" class="edge">
<title>hpDFcwRgP1alzl7VoM2g&#45;&gt;tjHorHV5omgvbPRqOwtB</title>
<path fill="none" stroke="dimgrey" d="M638.5,-473.9C638.5,-464.33 638.5,-453.24 638.5,-443.62"/>
<polygon fill="dimgrey" stroke="dimgrey" points="640.25,-443.44 638.5,-438.44 636.75,-443.44 640.25,-443.44"/>
</g>
<!-- erdk6DWTokxjNioEyGa3 -->
<g id="node13" class="node">
<title>erdk6DWTokxjNioEyGa3</title>
<path fill="honeydew" stroke="#065f46" d="M1062.5,-438C1062.5,-438 806.5,-438 806.5,-438 800.5,-438 794.5,-432 794.5,-426 794.5,-426 794.5,-412 794.5,-412 794.5,-406 800.5,-400 806.5,-400 806.5,-400 1062.5,-400 1062.5,-400 1068.5,-400 1074.5,-406 1074.5,-412 1074.5,-412 1074.5,-426 1074.5,-426 1074.5,-432 1068.5,-438 1062.5,-438"/>
<text text-anchor="start" x="802.5" y="-427" font-family="Helvetica,sans-Serif" font-size="10.00">perturbseq/filtered_feature_bc_matrix/barcodes.tsv.gz</text>
<text text-anchor="start" x="865" y="-417" font-family="Monospace" font-size="10.00" fill="GREY">id=erdk6DWTokxjNioEyGa3</text>
<text text-anchor="start" x="892" y="-407" font-family="Monospace" font-size="10.00" fill="GREY">suffix=.tsv.gz</text>
</g>
<!-- hpDFcwRgP1alzl7VoM2g&#45;&gt;erdk6DWTokxjNioEyGa3 -->
<g id="edge10" class="edge">
<title>hpDFcwRgP1alzl7VoM2g&#45;&gt;erdk6DWTokxjNioEyGa3</title>
<path fill="none" stroke="dimgrey" d="M727.31,-473.9C769.69,-462.87 819.83,-449.83 860.16,-439.34"/>
<polygon fill="dimgrey" stroke="dimgrey" points="860.64,-441.02 865.03,-438.07 859.75,-437.64 860.64,-441.02"/>
</g>
<!-- FCYTgF8NiPzwgqTjjx2Y -->
<g id="node10" class="node">
<title>FCYTgF8NiPzwgqTjjx2Y</title>
<path fill="honeydew" stroke="#065f46" d="M815.5,-596C815.5,-596 659.5,-596 659.5,-596 653.5,-596 647.5,-590 647.5,-584 647.5,-584 647.5,-570 647.5,-570 647.5,-564 653.5,-558 659.5,-558 659.5,-558 815.5,-558 815.5,-558 821.5,-558 827.5,-564 827.5,-570 827.5,-570 827.5,-584 827.5,-584 827.5,-590 821.5,-596 815.5,-596"/>
<text text-anchor="start" x="655.5" y="-585" font-family="Helvetica,sans-Serif" font-size="10.00">fastq/perturbseq_R2_001.fastq.gz</text>
<text text-anchor="start" x="668" y="-575" font-family="Monospace" font-size="10.00" fill="GREY">id=FCYTgF8NiPzwgqTjjx2Y</text>
<text text-anchor="start" x="689" y="-565" font-family="Monospace" font-size="10.00" fill="GREY">suffix=.fastq.gz</text>
</g>
<!-- FCYTgF8NiPzwgqTjjx2Y&#45;&gt;hpDFcwRgP1alzl7VoM2g -->
<g id="edge7" class="edge">
<title>FCYTgF8NiPzwgqTjjx2Y&#45;&gt;hpDFcwRgP1alzl7VoM2g</title>
<path fill="none" stroke="dimgrey" d="M714.29,-557.95C701.86,-548.28 686.31,-536.19 672.54,-525.48"/>
<polygon fill="dimgrey" stroke="dimgrey" points="673.35,-523.89 668.33,-522.2 671.2,-526.65 673.35,-523.89"/>
</g>
<!-- FdBZ8pp7SYqpBEeiYMR0 -->
<g id="node17" class="node">
<title>FdBZ8pp7SYqpBEeiYMR0</title>
<path fill="gainsboro" stroke="#065f46" d="M578,-364C578,-364 405,-364 405,-364 399,-364 393,-358 393,-352 393,-352 393,-328 393,-328 393,-322 399,-316 405,-316 405,-316 578,-316 578,-316 584,-316 590,-322 590,-328 590,-328 590,-352 590,-352 590,-358 584,-364 578,-364"/>
<text text-anchor="start" x="407" y="-353" font-family="Helvetica,sans-Serif" font-size="10.00">🧩 Preprocess Cell Ranger outputs</text>
<text text-anchor="start" x="422" y="-343" font-family="Monospace" font-size="10.00" fill="GREY">id=FdBZ8pp7SYqpBEeiYMR0</text>
<text text-anchor="start" x="401" y="-333" font-family="Monospace" font-size="10.00" fill="GREY">type=pipeline, user=Test User2</text>
<text text-anchor="start" x="413" y="-323" font-family="Monospace" font-size="10.00" fill="GREY">run_at=2023&#45;08&#45;05 17:37:53</text>
</g>
<!-- cMfJ0YMSYe6ABSHpuB2e&#45;&gt;FdBZ8pp7SYqpBEeiYMR0 -->
<g id="edge17" class="edge">
<title>cMfJ0YMSYe6ABSHpuB2e&#45;&gt;FdBZ8pp7SYqpBEeiYMR0</title>
<path fill="none" stroke="dimgrey" d="M379.73,-399.95C398.61,-389.99 422.37,-377.46 443.13,-366.51"/>
<polygon fill="dimgrey" stroke="dimgrey" points="444.17,-367.94 447.78,-364.06 442.54,-364.84 444.17,-367.94"/>
</g>
<!-- tjHorHV5omgvbPRqOwtB&#45;&gt;FdBZ8pp7SYqpBEeiYMR0 -->
<g id="edge16" class="edge">
<title>tjHorHV5omgvbPRqOwtB&#45;&gt;FdBZ8pp7SYqpBEeiYMR0</title>
<path fill="none" stroke="dimgrey" d="M604.04,-399.95C585.02,-389.99 561.1,-377.46 540.2,-366.51"/>
<polygon fill="dimgrey" stroke="dimgrey" points="540.76,-364.83 535.52,-364.06 539.14,-367.93 540.76,-364.83"/>
</g>
<!-- erdk6DWTokxjNioEyGa3&#45;&gt;FdBZ8pp7SYqpBEeiYMR0 -->
<g id="edge18" class="edge">
<title>erdk6DWTokxjNioEyGa3&#45;&gt;FdBZ8pp7SYqpBEeiYMR0</title>
<path fill="none" stroke="dimgrey" d="M830.92,-400C760,-387.67 666.32,-371.39 595.34,-359.05"/>
<polygon fill="dimgrey" stroke="dimgrey" points="595.5,-357.3 590.27,-358.17 594.9,-360.75 595.5,-357.3"/>
</g>
<!-- KjJ54hM2pYCDH4RRpudQ -->
<g id="node15" class="node">
<title>KjJ54hM2pYCDH4RRpudQ</title>
<path fill="gainsboro" stroke="#065f46" d="M725,-680C725,-680 552,-680 552,-680 546,-680 540,-674 540,-668 540,-668 540,-644 540,-644 540,-638 546,-632 552,-632 552,-632 725,-632 725,-632 731,-632 737,-638 737,-644 737,-644 737,-668 737,-668 737,-674 731,-680 725,-680"/>
<text text-anchor="start" x="576.5" y="-669" font-family="Helvetica,sans-Serif" font-size="10.00">🧩 Chromium 10x upload</text>
<text text-anchor="start" x="569" y="-659" font-family="Monospace" font-size="10.00" fill="GREY">id=KjJ54hM2pYCDH4RRpudQ</text>
<text text-anchor="start" x="548" y="-649" font-family="Monospace" font-size="10.00" fill="GREY">type=pipeline, user=Test User1</text>
<text text-anchor="start" x="560" y="-639" font-family="Monospace" font-size="10.00" fill="GREY">run_at=2023&#45;08&#45;05 17:37:51</text>
</g>
<!-- KjJ54hM2pYCDH4RRpudQ&#45;&gt;XQNSpiNXB7CoIbDpOrjO -->
<g id="edge12" class="edge">
<title>KjJ54hM2pYCDH4RRpudQ&#45;&gt;XQNSpiNXB7CoIbDpOrjO</title>
<path fill="none" stroke="dimgrey" d="M608.8,-631.9C595.48,-621.54 579.87,-609.4 566.85,-599.27"/>
<polygon fill="dimgrey" stroke="dimgrey" points="567.91,-597.88 562.89,-596.19 565.77,-600.65 567.91,-597.88"/>
</g>
<!-- KjJ54hM2pYCDH4RRpudQ&#45;&gt;FCYTgF8NiPzwgqTjjx2Y -->
<g id="edge13" class="edge">
<title>KjJ54hM2pYCDH4RRpudQ&#45;&gt;FCYTgF8NiPzwgqTjjx2Y</title>
<path fill="none" stroke="dimgrey" d="M668.2,-631.9C681.52,-621.54 697.13,-609.4 710.15,-599.27"/>
<polygon fill="dimgrey" stroke="dimgrey" points="711.23,-600.65 714.11,-596.19 709.09,-597.88 711.23,-600.65"/>
</g>
<!-- jvuLZRQCt0MU19UXf3Sc&#45;&gt;5Hj5NASjYfLRAWfF0qOl -->
<g id="edge15" class="edge">
<title>jvuLZRQCt0MU19UXf3Sc&#45;&gt;5Hj5NASjYfLRAWfF0qOl</title>
<path fill="none" stroke="dimgrey" d="M264,-315.9C265.88,-306.24 268.06,-295.04 269.95,-285.35"/>
<polygon fill="dimgrey" stroke="dimgrey" points="271.67,-285.69 270.91,-280.44 268.23,-285.02 271.67,-285.69"/>
</g>
<!-- FdBZ8pp7SYqpBEeiYMR0&#45;&gt;Ek30xpaeftSGUQlJoYIr -->
<g id="edge19" class="edge">
<title>FdBZ8pp7SYqpBEeiYMR0&#45;&gt;Ek30xpaeftSGUQlJoYIr</title>
<path fill="none" stroke="dimgrey" d="M486.4,-315.9C484.27,-306.24 481.79,-295.04 479.66,-285.35"/>
<polygon fill="dimgrey" stroke="dimgrey" points="481.36,-284.95 478.57,-280.44 477.94,-285.7 481.36,-284.95"/>
</g>
</g>
</svg>
