<?xml version="1.0" encoding="UTF-8" standalone="no"?>
<!DOCTYPE svg PUBLIC "-//W3C//DTD SVG 1.1//EN"
 "http://www.w3.org/Graphics/SVG/1.1/DTD/svg11.dtd">
<!-- Generated by graphviz version 2.43.0 (0)
 -->
<!-- Title: WFd3abKs4Y42mdcIzfww Pages: 1 -->
<svg width="1084pt" height="604pt"
 viewBox="0.00 0.00 1083.50 604.00" xmlns="http://www.w3.org/2000/svg" xmlns:xlink="http://www.w3.org/1999/xlink">
<g id="graph0" class="graph" transform="scale(1 1) rotate(0) translate(4 600)">
<title>WFd3abKs4Y42mdcIzfww</title>
<polygon fill="white" stroke="transparent" points="-4,4 -4,-600 1079.5,-600 1079.5,4 -4,4"/>
<!-- I2vk6EOrnQbKXdonSj50 -->
<g id="node1" class="node">
<title>I2vk6EOrnQbKXdonSj50</title>
<path fill="gainsboro" stroke="seagreen" d="M170,-438C170,-438 21,-438 21,-438 15,-438 9,-432 9,-426 9,-426 9,-402 9,-402 9,-396 15,-390 21,-390 21,-390 170,-390 170,-390 176,-390 182,-396 182,-402 182,-402 182,-426 182,-426 182,-432 176,-438 170,-438"/>
<text text-anchor="start" x="27.5" y="-427" font-family="Helvetica,sans-Serif" font-size="10.00">Upload GWS CRISPRa result</text>
<text text-anchor="start" x="26" y="-417" font-family="Monospace" font-size="10.00" fill="GREY">id=I2vk6EOrnQbKXdonSj50</text>
<text text-anchor="start" x="20" y="-407" font-family="Monospace" font-size="10.00" fill="GREY">type=app, user=Test User1</text>
<text text-anchor="start" x="17" y="-397" font-family="Monospace" font-size="10.00" fill="GREY">run_at=2023&#45;07&#45;26 12:30:51</text>
</g>
<!-- wOyZpRWZnWexjkuYqfDI -->
<g id="node2" class="node">
<title>wOyZpRWZnWexjkuYqfDI</title>
<path fill="honeydew" stroke="seagreen" d="M179,-354C179,-354 12,-354 12,-354 6,-354 0,-348 0,-342 0,-342 0,-328 0,-328 0,-322 6,-316 12,-316 12,-316 179,-316 179,-316 185,-316 191,-322 191,-328 191,-328 191,-342 191,-342 191,-348 185,-354 179,-354"/>
<text text-anchor="start" x="8" y="-343" font-family="Helvetica,sans-Serif" font-size="10.00">Raw data of schmidt22 crispra GWS</text>
<text text-anchor="start" x="26" y="-333" font-family="Monospace" font-size="10.00" fill="GREY">id=wOyZpRWZnWexjkuYqfDI</text>
<text text-anchor="start" x="62" y="-323" font-family="Monospace" font-size="10.00" fill="GREY">suffix=.csv</text>
</g>
<!-- I2vk6EOrnQbKXdonSj50&#45;&gt;wOyZpRWZnWexjkuYqfDI -->
<g id="edge1" class="edge">
<title>I2vk6EOrnQbKXdonSj50&#45;&gt;wOyZpRWZnWexjkuYqfDI</title>
<path fill="none" stroke="dimgrey" d="M95.5,-389.9C95.5,-380.33 95.5,-369.24 95.5,-359.62"/>
<polygon fill="dimgrey" stroke="dimgrey" points="97.25,-359.44 95.5,-354.44 93.75,-359.44 97.25,-359.44"/>
</g>
<!-- oEOstn6kRBrMvrDXpx8g -->
<g id="node12" class="node">
<title>oEOstn6kRBrMvrDXpx8g</title>
<path fill="gainsboro" stroke="seagreen" d="M349,-280C349,-280 176,-280 176,-280 170,-280 164,-274 164,-268 164,-268 164,-244 164,-244 164,-238 170,-232 176,-232 176,-232 349,-232 349,-232 355,-232 361,-238 361,-244 361,-244 361,-268 361,-268 361,-274 355,-280 349,-280"/>
<text text-anchor="start" x="206.5" y="-269" font-family="Helvetica,sans-Serif" font-size="10.00">GWS CRIPSRa analysis</text>
<text text-anchor="start" x="193" y="-259" font-family="Monospace" font-size="10.00" fill="GREY">id=oEOstn6kRBrMvrDXpx8g</text>
<text text-anchor="start" x="172" y="-249" font-family="Monospace" font-size="10.00" fill="GREY">type=notebook, user=Test User2</text>
<text text-anchor="start" x="184" y="-239" font-family="Monospace" font-size="10.00" fill="GREY">run_at=2023&#45;07&#45;26 12:30:52</text>
</g>
<!-- wOyZpRWZnWexjkuYqfDI&#45;&gt;oEOstn6kRBrMvrDXpx8g -->
<g id="edge10" class="edge">
<title>wOyZpRWZnWexjkuYqfDI&#45;&gt;oEOstn6kRBrMvrDXpx8g</title>
<path fill="none" stroke="dimgrey" d="M134.65,-315.95C156.44,-305.9 183.89,-293.25 207.77,-282.24"/>
<polygon fill="dimgrey" stroke="dimgrey" points="208.68,-283.74 212.49,-280.06 207.22,-280.56 208.68,-283.74"/>
</g>
<!-- z8g4PK7udnp77bYMVN5H -->
<g id="node3" class="node">
<title>z8g4PK7udnp77bYMVN5H</title>
<path fill="honeydew" stroke="seagreen" d="M544,-196C544,-196 413,-196 413,-196 407,-196 401,-190 401,-184 401,-184 401,-170 401,-170 401,-164 407,-158 413,-158 413,-158 544,-158 544,-158 550,-158 556,-164 556,-170 556,-170 556,-184 556,-184 556,-190 550,-196 544,-196"/>
<text text-anchor="start" x="434.5" y="-185" font-family="Helvetica,sans-Serif" font-size="10.00">perturbseq counts</text>
<text text-anchor="start" x="409" y="-175" font-family="Monospace" font-size="10.00" fill="GREY">id=z8g4PK7udnp77bYMVN5H</text>
<text text-anchor="start" x="442" y="-165" font-family="Monospace" font-size="10.00" fill="GREY">suffix=.h5ad</text>
</g>
<!-- QgGEMTTwvYdguzMKDlxM -->
<g id="node4" class="node">
<title>QgGEMTTwvYdguzMKDlxM</title>
<path fill="gainsboro" stroke="seagreen" d="M514.5,-122C514.5,-122 224.5,-122 224.5,-122 218.5,-122 212.5,-116 212.5,-110 212.5,-110 212.5,-86 212.5,-86 212.5,-80 218.5,-74 224.5,-74 224.5,-74 514.5,-74 514.5,-74 520.5,-74 526.5,-80 526.5,-86 526.5,-86 526.5,-110 526.5,-110 526.5,-116 520.5,-122 514.5,-122"/>
<text text-anchor="start" x="220.5" y="-111" font-family="Helvetica,sans-Serif" font-size="10.00">Perform single cell analysis, integrating with CRISPRa screen</text>
<text text-anchor="start" x="300" y="-101" font-family="Monospace" font-size="10.00" fill="GREY">id=QgGEMTTwvYdguzMKDlxM</text>
<text text-anchor="start" x="279" y="-91" font-family="Monospace" font-size="10.00" fill="GREY">type=notebook, user=Test User2</text>
<text text-anchor="start" x="291" y="-81" font-family="Monospace" font-size="10.00" fill="GREY">run_at=2023&#45;07&#45;26 12:30:52</text>
</g>
<!-- z8g4PK7udnp77bYMVN5H&#45;&gt;QgGEMTTwvYdguzMKDlxM -->
<g id="edge2" class="edge">
<title>z8g4PK7udnp77bYMVN5H&#45;&gt;QgGEMTTwvYdguzMKDlxM</title>
<path fill="none" stroke="dimgrey" d="M452.94,-157.95C439.14,-148.2 421.85,-135.98 406.59,-125.2"/>
<polygon fill="dimgrey" stroke="dimgrey" points="407.44,-123.66 402.34,-122.2 405.42,-126.51 407.44,-123.66"/>
</g>
<!-- X8lUeKvG7i0H1j2UjhW1 -->
<g id="node6" class="node">
<title>X8lUeKvG7i0H1j2UjhW1</title>
<path fill="honeydew" stroke="seagreen" d="M329,-38C329,-38 152,-38 152,-38 146,-38 140,-32 140,-26 140,-26 140,-12 140,-12 140,-6 146,0 152,0 152,0 329,0 329,0 335,0 341,-6 341,-12 341,-12 341,-26 341,-26 341,-32 335,-38 329,-38"/>
<text text-anchor="start" x="148" y="-27" font-family="Helvetica,sans-Serif" font-size="10.00">figures/umap_fig1_score&#45;wgs&#45;hits.png</text>
<text text-anchor="start" x="171" y="-17" font-family="Monospace" font-size="10.00" fill="GREY">id=X8lUeKvG7i0H1j2UjhW1</text>
<text text-anchor="start" x="207" y="-7" font-family="Monospace" font-size="10.00" fill="GREY">suffix=.png</text>
</g>
<!-- QgGEMTTwvYdguzMKDlxM&#45;&gt;X8lUeKvG7i0H1j2UjhW1 -->
<g id="edge4" class="edge">
<title>QgGEMTTwvYdguzMKDlxM&#45;&gt;X8lUeKvG7i0H1j2UjhW1</title>
<path fill="none" stroke="dimgrey" d="M330.8,-73.9C313.29,-63.45 292.76,-51.19 275.7,-41.01"/>
<polygon fill="dimgrey" stroke="dimgrey" points="276.17,-39.25 270.98,-38.19 274.38,-42.26 276.17,-39.25"/>
</g>
<!-- WFd3abKs4Y42mdcIzfww -->
<g id="node7" class="node">
<title>WFd3abKs4Y42mdcIzfww</title>
<path fill="mediumseagreen" stroke="seagreen" d="M627.5,-38C627.5,-38 371.5,-38 371.5,-38 365.5,-38 359.5,-32 359.5,-26 359.5,-26 359.5,-12 359.5,-12 359.5,-6 365.5,0 371.5,0 371.5,0 627.5,0 627.5,0 633.5,0 639.5,-6 639.5,-12 639.5,-12 639.5,-26 639.5,-26 639.5,-32 633.5,-38 627.5,-38"/>
<text text-anchor="start" x="367.5" y="-27" font-family="Helvetica,sans-Serif" font-size="10.00">figures/matrixplot_fig2_score&#45;wgs&#45;hits&#45;per&#45;cluster.png</text>
<text text-anchor="start" x="430" y="-17" font-family="Monospace" font-size="10.00" fill="GREY">id=WFd3abKs4Y42mdcIzfww</text>
<text text-anchor="start" x="466" y="-7" font-family="Monospace" font-size="10.00" fill="GREY">suffix=.png</text>
</g>
<!-- QgGEMTTwvYdguzMKDlxM&#45;&gt;WFd3abKs4Y42mdcIzfww -->
<g id="edge5" class="edge">
<title>QgGEMTTwvYdguzMKDlxM&#45;&gt;WFd3abKs4Y42mdcIzfww</title>
<path fill="none" stroke="dimgrey" d="M408.5,-73.9C426.29,-63.36 447.19,-50.98 464.47,-40.75"/>
<polygon fill="dimgrey" stroke="dimgrey" points="465.37,-42.25 468.78,-38.19 463.59,-39.24 465.37,-42.25"/>
</g>
<!-- RknQsBlvT6XIr2GKFXNk -->
<g id="node5" class="node">
<title>RknQsBlvT6XIr2GKFXNk</title>
<path fill="honeydew" stroke="seagreen" d="M354,-196C354,-196 201,-196 201,-196 195,-196 189,-190 189,-184 189,-184 189,-170 189,-170 189,-164 195,-158 201,-158 201,-158 354,-158 354,-158 360,-158 366,-164 366,-170 366,-170 366,-184 366,-184 366,-190 360,-196 354,-196"/>
<text text-anchor="start" x="197" y="-185" font-family="Helvetica,sans-Serif" font-size="10.00">hits from schmidt22 crispra GWS</text>
<text text-anchor="start" x="208" y="-175" font-family="Monospace" font-size="10.00" fill="GREY">id=RknQsBlvT6XIr2GKFXNk</text>
<text text-anchor="start" x="232" y="-165" font-family="Monospace" font-size="10.00" fill="GREY">suffix=.parquet</text>
</g>
<!-- RknQsBlvT6XIr2GKFXNk&#45;&gt;QgGEMTTwvYdguzMKDlxM -->
<g id="edge3" class="edge">
<title>RknQsBlvT6XIr2GKFXNk&#45;&gt;QgGEMTTwvYdguzMKDlxM</title>
<path fill="none" stroke="dimgrey" d="M299.3,-157.75C310.86,-148.08 325.27,-136.02 338.01,-125.35"/>
<polygon fill="dimgrey" stroke="dimgrey" points="339.2,-126.64 341.91,-122.09 336.96,-123.96 339.2,-126.64"/>
</g>
<!-- V2K38Bft8iJEBAPqyILT -->
<g id="node8" class="node">
<title>V2K38Bft8iJEBAPqyILT</title>
<path fill="honeydew" stroke="seagreen" d="M477.5,-354C477.5,-354 221.5,-354 221.5,-354 215.5,-354 209.5,-348 209.5,-342 209.5,-342 209.5,-328 209.5,-328 209.5,-322 215.5,-316 221.5,-316 221.5,-316 477.5,-316 477.5,-316 483.5,-316 489.5,-322 489.5,-328 489.5,-328 489.5,-342 489.5,-342 489.5,-348 483.5,-354 477.5,-354"/>
<text text-anchor="start" x="217.5" y="-343" font-family="Helvetica,sans-Serif" font-size="10.00">perturbseq/filtered_feature_bc_matrix/barcodes.tsv.gz</text>
<text text-anchor="start" x="280" y="-333" font-family="Monospace" font-size="10.00" fill="GREY">id=V2K38Bft8iJEBAPqyILT</text>
<text text-anchor="start" x="307" y="-323" font-family="Monospace" font-size="10.00" fill="GREY">suffix=.tsv.gz</text>
</g>
<!-- QzRBum860Sj7xRNXdNFt -->
<g id="node9" class="node">
<title>QzRBum860Sj7xRNXdNFt</title>
<path fill="gainsboro" stroke="seagreen" d="M583,-280C583,-280 410,-280 410,-280 404,-280 398,-274 398,-268 398,-268 398,-244 398,-244 398,-238 404,-232 410,-232 410,-232 583,-232 583,-232 589,-232 595,-238 595,-244 595,-244 595,-268 595,-268 595,-274 589,-280 583,-280"/>
<text text-anchor="start" x="420" y="-269" font-family="Helvetica,sans-Serif" font-size="10.00">Preprocess Cell Ranger outputs</text>
<text text-anchor="start" x="427" y="-259" font-family="Monospace" font-size="10.00" fill="GREY">id=QzRBum860Sj7xRNXdNFt</text>
<text text-anchor="start" x="406" y="-249" font-family="Monospace" font-size="10.00" fill="GREY">type=pipeline, user=Test User2</text>
<text text-anchor="start" x="418" y="-239" font-family="Monospace" font-size="10.00" fill="GREY">run_at=2023&#45;07&#45;26 12:30:50</text>
</g>
<!-- V2K38Bft8iJEBAPqyILT&#45;&gt;QzRBum860Sj7xRNXdNFt -->
<g id="edge6" class="edge">
<title>V2K38Bft8iJEBAPqyILT&#45;&gt;QzRBum860Sj7xRNXdNFt</title>
<path fill="none" stroke="dimgrey" d="M383.96,-315.95C402.98,-305.99 426.9,-293.46 447.8,-282.51"/>
<polygon fill="dimgrey" stroke="dimgrey" points="448.86,-283.93 452.48,-280.06 447.24,-280.83 448.86,-283.93"/>
</g>
<!-- QzRBum860Sj7xRNXdNFt&#45;&gt;z8g4PK7udnp77bYMVN5H -->
<g id="edge9" class="edge">
<title>QzRBum860Sj7xRNXdNFt&#45;&gt;z8g4PK7udnp77bYMVN5H</title>
<path fill="none" stroke="dimgrey" d="M491.1,-231.9C488.84,-222.24 486.22,-211.04 483.96,-201.35"/>
<polygon fill="dimgrey" stroke="dimgrey" points="485.65,-200.91 482.81,-196.44 482.25,-201.71 485.65,-200.91"/>
</g>
<!-- lJI1DezeFiytRfz1RVJf -->
<g id="node10" class="node">
<title>lJI1DezeFiytRfz1RVJf</title>
<path fill="honeydew" stroke="seagreen" d="M769,-354C769,-354 520,-354 520,-354 514,-354 508,-348 508,-342 508,-342 508,-328 508,-328 508,-322 514,-316 520,-316 520,-316 769,-316 769,-316 775,-316 781,-322 781,-328 781,-328 781,-342 781,-342 781,-348 775,-354 769,-354"/>
<text text-anchor="start" x="516" y="-343" font-family="Helvetica,sans-Serif" font-size="10.00">perturbseq/filtered_feature_bc_matrix/matrix.mtx.gz</text>
<text text-anchor="start" x="575" y="-333" font-family="Monospace" font-size="10.00" fill="GREY">id=lJI1DezeFiytRfz1RVJf</text>
<text text-anchor="start" x="602" y="-323" font-family="Monospace" font-size="10.00" fill="GREY">suffix=.mtx.gz</text>
</g>
<!-- lJI1DezeFiytRfz1RVJf&#45;&gt;QzRBum860Sj7xRNXdNFt -->
<g id="edge7" class="edge">
<title>lJI1DezeFiytRfz1RVJf&#45;&gt;QzRBum860Sj7xRNXdNFt</title>
<path fill="none" stroke="dimgrey" d="M609.8,-315.95C590.58,-305.95 566.37,-293.35 545.27,-282.37"/>
<polygon fill="dimgrey" stroke="dimgrey" points="546.06,-280.81 540.82,-280.06 544.45,-283.92 546.06,-280.81"/>
</g>
<!-- F08UH19PwyjtbWeF16H5 -->
<g id="node11" class="node">
<title>F08UH19PwyjtbWeF16H5</title>
<path fill="honeydew" stroke="seagreen" d="M1063.5,-354C1063.5,-354 811.5,-354 811.5,-354 805.5,-354 799.5,-348 799.5,-342 799.5,-342 799.5,-328 799.5,-328 799.5,-322 805.5,-316 811.5,-316 811.5,-316 1063.5,-316 1063.5,-316 1069.5,-316 1075.5,-322 1075.5,-328 1075.5,-328 1075.5,-342 1075.5,-342 1075.5,-348 1069.5,-354 1063.5,-354"/>
<text text-anchor="start" x="807.5" y="-343" font-family="Helvetica,sans-Serif" font-size="10.00">perturbseq/filtered_feature_bc_matrix/features.tsv.gz</text>
<text text-anchor="start" x="868" y="-333" font-family="Monospace" font-size="10.00" fill="GREY">id=F08UH19PwyjtbWeF16H5</text>
<text text-anchor="start" x="895" y="-323" font-family="Monospace" font-size="10.00" fill="GREY">suffix=.tsv.gz</text>
</g>
<!-- F08UH19PwyjtbWeF16H5&#45;&gt;QzRBum860Sj7xRNXdNFt -->
<g id="edge8" class="edge">
<title>F08UH19PwyjtbWeF16H5&#45;&gt;QzRBum860Sj7xRNXdNFt</title>
<path fill="none" stroke="dimgrey" d="M834.38,-316C763.91,-303.69 670.86,-287.44 600.25,-275.11"/>
<polygon fill="dimgrey" stroke="dimgrey" points="600.43,-273.37 595.2,-274.23 599.83,-276.82 600.43,-273.37"/>
</g>
<!-- oEOstn6kRBrMvrDXpx8g&#45;&gt;RknQsBlvT6XIr2GKFXNk -->
<g id="edge11" class="edge">
<title>oEOstn6kRBrMvrDXpx8g&#45;&gt;RknQsBlvT6XIr2GKFXNk</title>
<path fill="none" stroke="dimgrey" d="M267,-231.9C268.88,-222.24 271.06,-211.04 272.95,-201.35"/>
<polygon fill="dimgrey" stroke="dimgrey" points="274.67,-201.69 273.91,-196.44 271.23,-201.02 274.67,-201.69"/>
</g>
<!-- SP4vCgyQ3IKVCAQ7zuEK -->
<g id="node13" class="node">
<title>SP4vCgyQ3IKVCAQ7zuEK</title>
<path fill="gainsboro" stroke="seagreen" d="M731,-596C731,-596 558,-596 558,-596 552,-596 546,-590 546,-584 546,-584 546,-560 546,-560 546,-554 552,-548 558,-548 558,-548 731,-548 731,-548 737,-548 743,-554 743,-560 743,-560 743,-584 743,-584 743,-590 737,-596 731,-596"/>
<text text-anchor="start" x="590" y="-585" font-family="Helvetica,sans-Serif" font-size="10.00">Chromium 10x upload</text>
<text text-anchor="start" x="575" y="-575" font-family="Monospace" font-size="10.00" fill="GREY">id=SP4vCgyQ3IKVCAQ7zuEK</text>
<text text-anchor="start" x="554" y="-565" font-family="Monospace" font-size="10.00" fill="GREY">type=pipeline, user=Test User1</text>
<text text-anchor="start" x="566" y="-555" font-family="Monospace" font-size="10.00" fill="GREY">run_at=2023&#45;07&#45;26 12:30:49</text>
</g>
<!-- 06SGkAW3j3MIGVPyOBPV -->
<g id="node14" class="node">
<title>06SGkAW3j3MIGVPyOBPV</title>
<path fill="honeydew" stroke="seagreen" d="M623.5,-512C623.5,-512 467.5,-512 467.5,-512 461.5,-512 455.5,-506 455.5,-500 455.5,-500 455.5,-486 455.5,-486 455.5,-480 461.5,-474 467.5,-474 467.5,-474 623.5,-474 623.5,-474 629.5,-474 635.5,-480 635.5,-486 635.5,-486 635.5,-500 635.5,-500 635.5,-506 629.5,-512 623.5,-512"/>
<text text-anchor="start" x="463.5" y="-501" font-family="Helvetica,sans-Serif" font-size="10.00">fastq/perturbseq_R1_001.fastq.gz</text>
<text text-anchor="start" x="476" y="-491" font-family="Monospace" font-size="10.00" fill="GREY">id=06SGkAW3j3MIGVPyOBPV</text>
<text text-anchor="start" x="497" y="-481" font-family="Monospace" font-size="10.00" fill="GREY">suffix=.fastq.gz</text>
</g>
<!-- SP4vCgyQ3IKVCAQ7zuEK&#45;&gt;06SGkAW3j3MIGVPyOBPV -->
<g id="edge12" class="edge">
<title>SP4vCgyQ3IKVCAQ7zuEK&#45;&gt;06SGkAW3j3MIGVPyOBPV</title>
<path fill="none" stroke="dimgrey" d="M614.8,-547.9C601.48,-537.54 585.87,-525.4 572.85,-515.27"/>
<polygon fill="dimgrey" stroke="dimgrey" points="573.91,-513.88 568.89,-512.19 571.77,-516.65 573.91,-513.88"/>
</g>
<!-- mnpwYwdHURhUxn9gOxVm -->
<g id="node15" class="node">
<title>mnpwYwdHURhUxn9gOxVm</title>
<path fill="honeydew" stroke="seagreen" d="M821.5,-512C821.5,-512 665.5,-512 665.5,-512 659.5,-512 653.5,-506 653.5,-500 653.5,-500 653.5,-486 653.5,-486 653.5,-480 659.5,-474 665.5,-474 665.5,-474 821.5,-474 821.5,-474 827.5,-474 833.5,-480 833.5,-486 833.5,-486 833.5,-500 833.5,-500 833.5,-506 827.5,-512 821.5,-512"/>
<text text-anchor="start" x="661.5" y="-501" font-family="Helvetica,sans-Serif" font-size="10.00">fastq/perturbseq_R2_001.fastq.gz</text>
<text text-anchor="start" x="674" y="-491" font-family="Monospace" font-size="10.00" fill="GREY">id=mnpwYwdHURhUxn9gOxVm</text>
<text text-anchor="start" x="695" y="-481" font-family="Monospace" font-size="10.00" fill="GREY">suffix=.fastq.gz</text>
</g>
<!-- SP4vCgyQ3IKVCAQ7zuEK&#45;&gt;mnpwYwdHURhUxn9gOxVm -->
<g id="edge13" class="edge">
<title>SP4vCgyQ3IKVCAQ7zuEK&#45;&gt;mnpwYwdHURhUxn9gOxVm</title>
<path fill="none" stroke="dimgrey" d="M674.2,-547.9C687.52,-537.54 703.13,-525.4 716.15,-515.27"/>
<polygon fill="dimgrey" stroke="dimgrey" points="717.23,-516.65 720.11,-512.19 715.09,-513.88 717.23,-516.65"/>
</g>
<!-- riPh9CTubtsqxxi2Oygx -->
<g id="node16" class="node">
<title>riPh9CTubtsqxxi2Oygx</title>
<path fill="gainsboro" stroke="seagreen" d="M731,-438C731,-438 558,-438 558,-438 552,-438 546,-432 546,-426 546,-426 546,-402 546,-402 546,-396 552,-390 558,-390 558,-390 731,-390 731,-390 737,-390 743,-396 743,-402 743,-402 743,-426 743,-426 743,-432 737,-438 731,-438"/>
<text text-anchor="start" x="616" y="-427" font-family="Helvetica,sans-Serif" font-size="10.00">Cell Ranger</text>
<text text-anchor="start" x="575" y="-417" font-family="Monospace" font-size="10.00" fill="GREY">id=riPh9CTubtsqxxi2Oygx</text>
<text text-anchor="start" x="554" y="-407" font-family="Monospace" font-size="10.00" fill="GREY">type=pipeline, user=Test User2</text>
<text text-anchor="start" x="566" y="-397" font-family="Monospace" font-size="10.00" fill="GREY">run_at=2023&#45;07&#45;26 12:30:50</text>
</g>
<!-- 06SGkAW3j3MIGVPyOBPV&#45;&gt;riPh9CTubtsqxxi2Oygx -->
<g id="edge14" class="edge">
<title>06SGkAW3j3MIGVPyOBPV&#45;&gt;riPh9CTubtsqxxi2Oygx</title>
<path fill="none" stroke="dimgrey" d="M568.71,-473.95C581.14,-464.28 596.69,-452.19 610.46,-441.48"/>
<polygon fill="dimgrey" stroke="dimgrey" points="611.8,-442.65 614.67,-438.2 609.65,-439.89 611.8,-442.65"/>
</g>
<!-- mnpwYwdHURhUxn9gOxVm&#45;&gt;riPh9CTubtsqxxi2Oygx -->
<g id="edge15" class="edge">
<title>mnpwYwdHURhUxn9gOxVm&#45;&gt;riPh9CTubtsqxxi2Oygx</title>
<path fill="none" stroke="dimgrey" d="M720.29,-473.95C707.86,-464.28 692.31,-452.19 678.54,-441.48"/>
<polygon fill="dimgrey" stroke="dimgrey" points="679.35,-439.89 674.33,-438.2 677.2,-442.65 679.35,-439.89"/>
</g>
<!-- riPh9CTubtsqxxi2Oygx&#45;&gt;V2K38Bft8iJEBAPqyILT -->
<g id="edge17" class="edge">
<title>riPh9CTubtsqxxi2Oygx&#45;&gt;V2K38Bft8iJEBAPqyILT</title>
<path fill="none" stroke="dimgrey" d="M555.99,-389.9C513.75,-378.87 463.78,-365.83 423.58,-355.34"/>
<polygon fill="dimgrey" stroke="dimgrey" points="424.01,-353.64 418.73,-354.07 423.13,-357.03 424.01,-353.64"/>
</g>
<!-- riPh9CTubtsqxxi2Oygx&#45;&gt;lJI1DezeFiytRfz1RVJf -->
<g id="edge18" class="edge">
<title>riPh9CTubtsqxxi2Oygx&#45;&gt;lJI1DezeFiytRfz1RVJf</title>
<path fill="none" stroke="dimgrey" d="M644.5,-389.9C644.5,-380.33 644.5,-369.24 644.5,-359.62"/>
<polygon fill="dimgrey" stroke="dimgrey" points="646.25,-359.44 644.5,-354.44 642.75,-359.44 646.25,-359.44"/>
</g>
<!-- riPh9CTubtsqxxi2Oygx&#45;&gt;F08UH19PwyjtbWeF16H5 -->
<g id="edge16" class="edge">
<title>riPh9CTubtsqxxi2Oygx&#45;&gt;F08UH19PwyjtbWeF16H5</title>
<path fill="none" stroke="dimgrey" d="M732.41,-389.9C774.19,-378.92 823.59,-365.94 863.43,-355.47"/>
<polygon fill="dimgrey" stroke="dimgrey" points="864.35,-357.03 868.74,-354.07 863.46,-353.65 864.35,-357.03"/>
</g>
</g>
</svg>
