<?xml version="1.0" encoding="UTF-8" standalone="no"?>
<!DOCTYPE svg PUBLIC "-//W3C//DTD SVG 1.1//EN"
 "http://www.w3.org/Graphics/SVG/1.1/DTD/svg11.dtd">
<!-- Generated by graphviz version 8.1.0 (20230707.0739)
 -->
<!-- Title: l4vITt7eeBWx3ToWW1uS Pages: 1 -->
<svg width="1022pt" height="688pt"
 viewBox="0.00 0.00 1022.12 688.00" xmlns="http://www.w3.org/2000/svg" xmlns:xlink="http://www.w3.org/1999/xlink">
<g id="graph0" class="graph" transform="scale(1 1) rotate(0) translate(4 684)">
<title>l4vITt7eeBWx3ToWW1uS</title>
<polygon fill="white" stroke="none" points="-4,4 -4,-684 1018.12,-684 1018.12,4 -4,4"/>
<!-- bRqkmsM5LwGrfksU6GvK -->
<g id="node1" class="node">
<title>bRqkmsM5LwGrfksU6GvK</title>
<path fill="honeydew" stroke="#065f46" d="M517.62,-280C517.62,-280 387.62,-280 387.62,-280 381.62,-280 375.62,-274 375.62,-268 375.62,-268 375.62,-254 375.62,-254 375.62,-248 381.62,-242 387.62,-242 387.62,-242 517.62,-242 517.62,-242 523.62,-242 529.62,-248 529.62,-254 529.62,-254 529.62,-268 529.62,-268 529.62,-274 523.62,-280 517.62,-280"/>
<text text-anchor="start" x="407.25" y="-267.5" font-family="Helvetica,sans-Serif" font-size="10.00">📄 perturbseq counts</text>
<text text-anchor="start" x="383.62" y="-257.5" font-family="Monospace" font-size="10.00" fill="GREY">id=bRqkmsM5LwGrfksU6GvK</text>
<text text-anchor="start" x="416.62" y="-247.5" font-family="Monospace" font-size="10.00" fill="GREY">suffix=.h5ad</text>
</g>
<!-- fJqdyhoEUaBaCyYx90qU -->
<g id="node2" class="node">
<title>fJqdyhoEUaBaCyYx90qU</title>
<path fill="gainsboro" stroke="#065f46" d="M488,-206C488,-206 219.25,-206 219.25,-206 213.25,-206 207.25,-200 207.25,-194 207.25,-194 207.25,-170 207.25,-170 207.25,-164 213.25,-158 219.25,-158 219.25,-158 488,-158 488,-158 494,-158 500,-164 500,-170 500,-170 500,-194 500,-194 500,-200 494,-206 488,-206"/>
<text text-anchor="start" x="215.25" y="-193.5" font-family="Helvetica,sans-Serif" font-size="10.00">📔 Perform single cell analysis, integrate with CRISPRa screen</text>
<text text-anchor="start" x="284.62" y="-183.5" font-family="Monospace" font-size="10.00" fill="GREY">id=fJqdyhoEUaBaCyYx90qU</text>
<text text-anchor="start" x="263.62" y="-173.5" font-family="Monospace" font-size="10.00" fill="GREY">type=notebook, user=Test User2</text>
<text text-anchor="start" x="275.62" y="-163.5" font-family="Monospace" font-size="10.00" fill="GREY">run_at=2023&#45;09&#45;26 09:48:02</text>
</g>
<!-- bRqkmsM5LwGrfksU6GvK&#45;&gt;fJqdyhoEUaBaCyYx90qU -->
<g id="edge1" class="edge">
<title>bRqkmsM5LwGrfksU6GvK&#45;&gt;fJqdyhoEUaBaCyYx90qU</title>
<path fill="none" stroke="dimgrey" d="M428.91,-241.56C416.68,-232.04 401.53,-220.26 388.04,-209.77"/>
<polygon fill="dimgrey" stroke="dimgrey" points="389.56,-207.95 384.53,-206.26 387.41,-210.71 389.56,-207.95"/>
</g>
<!-- LB6bTY7zuNOyfX3NZgkm -->
<g id="node4" class="node">
<title>LB6bTY7zuNOyfX3NZgkm</title>
<path fill="honeydew" stroke="#065f46" d="M316.5,-122C316.5,-122 146.75,-122 146.75,-122 140.75,-122 134.75,-116 134.75,-110 134.75,-110 134.75,-96 134.75,-96 134.75,-90 140.75,-84 146.75,-84 146.75,-84 316.5,-84 316.5,-84 322.5,-84 328.5,-90 328.5,-96 328.5,-96 328.5,-110 328.5,-110 328.5,-116 322.5,-122 316.5,-122"/>
<text text-anchor="start" x="142.75" y="-109.5" font-family="Helvetica,sans-Serif" font-size="10.00">📄 figures/umap_fig1_score&#45;wgs&#45;hits.png</text>
<text text-anchor="start" x="162.62" y="-99.5" font-family="Monospace" font-size="10.00" fill="GREY">id=LB6bTY7zuNOyfX3NZgkm</text>
<text text-anchor="start" x="198.62" y="-89.5" font-family="Monospace" font-size="10.00" fill="GREY">suffix=.png</text>
</g>
<!-- fJqdyhoEUaBaCyYx90qU&#45;&gt;LB6bTY7zuNOyfX3NZgkm -->
<g id="edge3" class="edge">
<title>fJqdyhoEUaBaCyYx90qU&#45;&gt;LB6bTY7zuNOyfX3NZgkm</title>
<path fill="none" stroke="dimgrey" d="M316.69,-157.69C300.42,-147.42 281.43,-135.43 265.52,-125.39"/>
<polygon fill="dimgrey" stroke="dimgrey" points="266.85,-123.53 261.69,-122.35 264.99,-126.49 266.85,-123.53"/>
</g>
<!-- l4vITt7eeBWx3ToWW1uS -->
<g id="node5" class="node">
<title>l4vITt7eeBWx3ToWW1uS</title>
<path fill="#10b981" stroke="#065f46" d="M594.88,-122C594.88,-122 358.38,-122 358.38,-122 352.38,-122 346.38,-116 346.38,-110 346.38,-110 346.38,-96 346.38,-96 346.38,-90 352.38,-84 358.38,-84 358.38,-84 594.88,-84 594.88,-84 600.88,-84 606.88,-90 606.88,-96 606.88,-96 606.88,-110 606.88,-110 606.88,-116 600.88,-122 594.88,-122"/>
<text text-anchor="start" x="354.38" y="-109.5" font-family="Helvetica,sans-Serif" font-size="10.00">📄 figures/matrixplot_fig2_score&#45;wgs&#45;hits&#45;per&#45;cluster.png</text>
<text text-anchor="start" x="407.62" y="-99.5" font-family="Monospace" font-size="10.00" fill="GREY">id=l4vITt7eeBWx3ToWW1uS</text>
<text text-anchor="start" x="443.62" y="-89.5" font-family="Monospace" font-size="10.00" fill="GREY">suffix=.png</text>
</g>
<!-- fJqdyhoEUaBaCyYx90qU&#45;&gt;l4vITt7eeBWx3ToWW1uS -->
<g id="edge4" class="edge">
<title>fJqdyhoEUaBaCyYx90qU&#45;&gt;l4vITt7eeBWx3ToWW1uS</title>
<path fill="none" stroke="dimgrey" d="M390.86,-157.69C407.27,-147.42 426.41,-135.43 442.45,-125.39"/>
<polygon fill="dimgrey" stroke="dimgrey" points="443.01,-126.48 446.32,-122.35 441.15,-123.52 443.01,-126.48"/>
</g>
<!-- XnSLmJmLf8IAsDB1FBCK -->
<g id="node3" class="node">
<title>XnSLmJmLf8IAsDB1FBCK</title>
<path fill="honeydew" stroke="#065f46" d="M337.75,-280C337.75,-280 187.5,-280 187.5,-280 181.5,-280 175.5,-274 175.5,-268 175.5,-268 175.5,-254 175.5,-254 175.5,-248 181.5,-242 187.5,-242 187.5,-242 337.75,-242 337.75,-242 343.75,-242 349.75,-248 349.75,-254 349.75,-254 349.75,-268 349.75,-268 349.75,-274 343.75,-280 337.75,-280"/>
<text text-anchor="start" x="183.5" y="-267.5" font-family="Helvetica,sans-Serif" font-size="10.00">📄 hits from schmidt22 crispra GWS</text>
<text text-anchor="start" x="193.62" y="-257.5" font-family="Monospace" font-size="10.00" fill="GREY">id=XnSLmJmLf8IAsDB1FBCK</text>
<text text-anchor="start" x="217.62" y="-247.5" font-family="Monospace" font-size="10.00" fill="GREY">suffix=.parquet</text>
</g>
<!-- XnSLmJmLf8IAsDB1FBCK&#45;&gt;fJqdyhoEUaBaCyYx90qU -->
<g id="edge2" class="edge">
<title>XnSLmJmLf8IAsDB1FBCK&#45;&gt;fJqdyhoEUaBaCyYx90qU</title>
<path fill="none" stroke="dimgrey" d="M284.19,-241.75C295.33,-232.33 309.15,-220.63 321.52,-210.17"/>
<polygon fill="dimgrey" stroke="dimgrey" points="322.31,-210.94 325,-206.38 320.05,-208.27 322.31,-210.94"/>
</g>
<!-- dWrJVQzoffyuYfXSMSzI -->
<g id="node17" class="node">
<title>dWrJVQzoffyuYfXSMSzI</title>
<path fill="gainsboro" stroke="#065f46" d="M562.62,-48C562.62,-48 390.62,-48 390.62,-48 384.62,-48 378.62,-42 378.62,-36 378.62,-36 378.62,-12 378.62,-12 378.62,-6 384.62,0 390.62,0 390.62,0 562.62,0 562.62,0 568.62,0 574.62,-6 574.62,-12 574.62,-12 574.62,-36 574.62,-36 574.62,-42 568.62,-48 562.62,-48"/>
<text text-anchor="start" x="444.38" y="-35.5" font-family="Helvetica,sans-Serif" font-size="10.00">📔 Project flow</text>
<text text-anchor="start" x="407.62" y="-25.5" font-family="Monospace" font-size="10.00" fill="GREY">id=dWrJVQzoffyuYfXSMSzI</text>
<text text-anchor="start" x="386.62" y="-15.5" font-family="Monospace" font-size="10.00" fill="GREY">type=notebook, user=Test User2</text>
<text text-anchor="start" x="398.62" y="-5.5" font-family="Monospace" font-size="10.00" fill="GREY">run_at=2023&#45;09&#45;26 09:48:04</text>
</g>
<!-- l4vITt7eeBWx3ToWW1uS&#45;&gt;dWrJVQzoffyuYfXSMSzI -->
<g id="edge19" class="edge">
<title>l4vITt7eeBWx3ToWW1uS&#45;&gt;dWrJVQzoffyuYfXSMSzI</title>
<path fill="none" stroke="dimgrey" d="M476.62,-83.75C476.62,-74.9 476.62,-64.06 476.62,-54.11"/>
<polygon fill="dimgrey" stroke="dimgrey" points="478.38,-54.38 476.62,-49.38 474.88,-54.38 478.38,-54.38"/>
</g>
<!-- jXHIVw2v0icOWj9f3SIZ -->
<g id="node6" class="node">
<title>jXHIVw2v0icOWj9f3SIZ</title>
<path fill="honeydew" stroke="#065f46" d="M452,-438C452,-438 219.25,-438 219.25,-438 213.25,-438 207.25,-432 207.25,-426 207.25,-426 207.25,-412 207.25,-412 207.25,-406 213.25,-400 219.25,-400 219.25,-400 452,-400 452,-400 458,-400 464,-406 464,-412 464,-412 464,-426 464,-426 464,-432 458,-438 452,-438"/>
<text text-anchor="start" x="215.25" y="-425.5" font-family="Helvetica,sans-Serif" font-size="10.00">📄 perturbseq/filtered_feature_bc_matrix/features.tsv.gz</text>
<text text-anchor="start" x="266.62" y="-415.5" font-family="Monospace" font-size="10.00" fill="GREY">id=jXHIVw2v0icOWj9f3SIZ</text>
<text text-anchor="start" x="293.62" y="-405.5" font-family="Monospace" font-size="10.00" fill="GREY">suffix=.tsv.gz</text>
</g>
<!-- 3lBLpEqA6ljQtmE36dAU -->
<g id="node7" class="node">
<title>3lBLpEqA6ljQtmE36dAU</title>
<path fill="gainsboro" stroke="#065f46" d="M559.62,-364C559.62,-364 387.62,-364 387.62,-364 381.62,-364 375.62,-358 375.62,-352 375.62,-352 375.62,-328 375.62,-328 375.62,-322 381.62,-316 387.62,-316 387.62,-316 559.62,-316 559.62,-316 565.62,-316 571.62,-322 571.62,-328 571.62,-328 571.62,-352 571.62,-352 571.62,-358 565.62,-364 559.62,-364"/>
<text text-anchor="start" x="412.5" y="-351.5" font-family="Helvetica,sans-Serif" font-size="10.00">🧩 Postprocess Cell Ranger</text>
<text text-anchor="start" x="404.62" y="-341.5" font-family="Monospace" font-size="10.00" fill="GREY">id=3lBLpEqA6ljQtmE36dAU</text>
<text text-anchor="start" x="383.62" y="-331.5" font-family="Monospace" font-size="10.00" fill="GREY">type=pipeline, user=Test User2</text>
<text text-anchor="start" x="395.62" y="-321.5" font-family="Monospace" font-size="10.00" fill="GREY">run_at=2023&#45;09&#45;26 09:47:57</text>
</g>
<!-- jXHIVw2v0icOWj9f3SIZ&#45;&gt;3lBLpEqA6ljQtmE36dAU -->
<g id="edge5" class="edge">
<title>jXHIVw2v0icOWj9f3SIZ&#45;&gt;3lBLpEqA6ljQtmE36dAU</title>
<path fill="none" stroke="dimgrey" d="M368.68,-399.56C386.1,-389.84 407.76,-377.75 426.88,-367.08"/>
<polygon fill="dimgrey" stroke="dimgrey" points="427.16,-368.37 430.68,-364.41 425.46,-365.31 427.16,-368.37"/>
</g>
<!-- 3lBLpEqA6ljQtmE36dAU&#45;&gt;bRqkmsM5LwGrfksU6GvK -->
<g id="edge8" class="edge">
<title>3lBLpEqA6ljQtmE36dAU&#45;&gt;bRqkmsM5LwGrfksU6GvK</title>
<path fill="none" stroke="dimgrey" d="M467.32,-315.9C464.76,-306.51 461.8,-295.65 459.21,-286.16"/>
<polygon fill="dimgrey" stroke="dimgrey" points="460.66,-285.81 457.66,-281.44 457.28,-286.73 460.66,-285.81"/>
</g>
<!-- T9DpktC1R1Gzdbl9ZjAC -->
<g id="node8" class="node">
<title>T9DpktC1R1Gzdbl9ZjAC</title>
<path fill="honeydew" stroke="#065f46" d="M731.25,-438C731.25,-438 494,-438 494,-438 488,-438 482,-432 482,-426 482,-426 482,-412 482,-412 482,-406 488,-400 494,-400 494,-400 731.25,-400 731.25,-400 737.25,-400 743.25,-406 743.25,-412 743.25,-412 743.25,-426 743.25,-426 743.25,-432 737.25,-438 731.25,-438"/>
<text text-anchor="start" x="490" y="-425.5" font-family="Helvetica,sans-Serif" font-size="10.00">📄 perturbseq/filtered_feature_bc_matrix/barcodes.tsv.gz</text>
<text text-anchor="start" x="543.62" y="-415.5" font-family="Monospace" font-size="10.00" fill="GREY">id=T9DpktC1R1Gzdbl9ZjAC</text>
<text text-anchor="start" x="570.62" y="-405.5" font-family="Monospace" font-size="10.00" fill="GREY">suffix=.tsv.gz</text>
</g>
<!-- T9DpktC1R1Gzdbl9ZjAC&#45;&gt;3lBLpEqA6ljQtmE36dAU -->
<g id="edge6" class="edge">
<title>T9DpktC1R1Gzdbl9ZjAC&#45;&gt;3lBLpEqA6ljQtmE36dAU</title>
<path fill="none" stroke="dimgrey" d="M579.33,-399.56C561.78,-389.84 539.96,-377.75 520.71,-367.08"/>
<polygon fill="dimgrey" stroke="dimgrey" points="522.1,-365.3 516.88,-364.41 520.4,-368.36 522.1,-365.3"/>
</g>
<!-- GGgbrVwetQsPr0CsrFxg -->
<g id="node9" class="node">
<title>GGgbrVwetQsPr0CsrFxg</title>
<path fill="honeydew" stroke="#065f46" d="M1002.12,-438C1002.12,-438 773.12,-438 773.12,-438 767.12,-438 761.12,-432 761.12,-426 761.12,-426 761.12,-412 761.12,-412 761.12,-406 767.12,-400 773.12,-400 773.12,-400 1002.12,-400 1002.12,-400 1008.12,-400 1014.12,-406 1014.12,-412 1014.12,-412 1014.12,-426 1014.12,-426 1014.12,-432 1008.12,-438 1002.12,-438"/>
<text text-anchor="start" x="769.12" y="-425.5" font-family="Helvetica,sans-Serif" font-size="10.00">📄 perturbseq/filtered_feature_bc_matrix/matrix.mtx.gz</text>
<text text-anchor="start" x="818.62" y="-415.5" font-family="Monospace" font-size="10.00" fill="GREY">id=GGgbrVwetQsPr0CsrFxg</text>
<text text-anchor="start" x="845.62" y="-405.5" font-family="Monospace" font-size="10.00" fill="GREY">suffix=.mtx.gz</text>
</g>
<!-- GGgbrVwetQsPr0CsrFxg&#45;&gt;3lBLpEqA6ljQtmE36dAU -->
<g id="edge7" class="edge">
<title>GGgbrVwetQsPr0CsrFxg&#45;&gt;3lBLpEqA6ljQtmE36dAU</title>
<path fill="none" stroke="dimgrey" d="M788.2,-399.51C724.57,-387.67 642.16,-372.35 577.65,-360.35"/>
<polygon fill="dimgrey" stroke="dimgrey" points="578.09,-358.46 572.86,-359.27 577.45,-361.91 578.09,-358.46"/>
</g>
<!-- xFABqY3vcnHEfCCCvpls -->
<g id="node10" class="node">
<title>xFABqY3vcnHEfCCCvpls</title>
<path fill="honeydew" stroke="#065f46" d="M177.25,-438C177.25,-438 12,-438 12,-438 6,-438 0,-432 0,-426 0,-426 0,-412 0,-412 0,-406 6,-400 12,-400 12,-400 177.25,-400 177.25,-400 183.25,-400 189.25,-406 189.25,-412 189.25,-412 189.25,-426 189.25,-426 189.25,-432 183.25,-438 177.25,-438"/>
<text text-anchor="start" x="8" y="-425.5" font-family="Helvetica,sans-Serif" font-size="10.00">📄 Raw data of schmidt22 crispra GWS</text>
<text text-anchor="start" x="25.62" y="-415.5" font-family="Monospace" font-size="10.00" fill="GREY">id=xFABqY3vcnHEfCCCvpls</text>
<text text-anchor="start" x="61.62" y="-405.5" font-family="Monospace" font-size="10.00" fill="GREY">suffix=.csv</text>
</g>
<!-- EJvUTQYYhmpYMVIKIzs9 -->
<g id="node11" class="node">
<title>EJvUTQYYhmpYMVIKIzs9</title>
<path fill="gainsboro" stroke="#065f46" d="M332.62,-364C332.62,-364 160.62,-364 160.62,-364 154.62,-364 148.62,-358 148.62,-352 148.62,-352 148.62,-328 148.62,-328 148.62,-322 154.62,-316 160.62,-316 160.62,-316 332.62,-316 332.62,-316 338.62,-316 344.62,-322 344.62,-328 344.62,-328 344.62,-352 344.62,-352 344.62,-358 338.62,-364 332.62,-364"/>
<text text-anchor="start" x="185.12" y="-351.5" font-family="Helvetica,sans-Serif" font-size="10.00">📔 GWS CRIPSRa analysis</text>
<text text-anchor="start" x="177.62" y="-341.5" font-family="Monospace" font-size="10.00" fill="GREY">id=EJvUTQYYhmpYMVIKIzs9</text>
<text text-anchor="start" x="156.62" y="-331.5" font-family="Monospace" font-size="10.00" fill="GREY">type=notebook, user=Test User2</text>
<text text-anchor="start" x="168.62" y="-321.5" font-family="Monospace" font-size="10.00" fill="GREY">run_at=2023&#45;09&#45;26 09:47:55</text>
</g>
<!-- xFABqY3vcnHEfCCCvpls&#45;&gt;EJvUTQYYhmpYMVIKIzs9 -->
<g id="edge9" class="edge">
<title>xFABqY3vcnHEfCCCvpls&#45;&gt;EJvUTQYYhmpYMVIKIzs9</title>
<path fill="none" stroke="dimgrey" d="M131.03,-399.56C150.22,-389.84 174.08,-377.75 195.13,-367.08"/>
<polygon fill="dimgrey" stroke="dimgrey" points="195.75,-368.23 199.42,-364.41 194.17,-365.1 195.75,-368.23"/>
</g>
<!-- EJvUTQYYhmpYMVIKIzs9&#45;&gt;XnSLmJmLf8IAsDB1FBCK -->
<g id="edge10" class="edge">
<title>EJvUTQYYhmpYMVIKIzs9&#45;&gt;XnSLmJmLf8IAsDB1FBCK</title>
<path fill="none" stroke="dimgrey" d="M251.43,-315.9C253.38,-306.51 255.63,-295.65 257.61,-286.16"/>
<polygon fill="dimgrey" stroke="dimgrey" points="259.49,-286.69 258.79,-281.44 256.06,-285.98 259.49,-286.69"/>
</g>
<!-- XYT2pP2w6tRpoulRJLMA -->
<g id="node12" class="node">
<title>XYT2pP2w6tRpoulRJLMA</title>
<path fill="honeydew" stroke="#065f46" d="M590.88,-596C590.88,-596 438.38,-596 438.38,-596 432.38,-596 426.38,-590 426.38,-584 426.38,-584 426.38,-570 426.38,-570 426.38,-564 432.38,-558 438.38,-558 438.38,-558 590.88,-558 590.88,-558 596.88,-558 602.88,-564 602.88,-570 602.88,-570 602.88,-584 602.88,-584 602.88,-590 596.88,-596 590.88,-596"/>
<text text-anchor="start" x="434.38" y="-583.5" font-family="Helvetica,sans-Serif" font-size="10.00">📄 fastq/perturbseq_R1_001.fastq.gz</text>
<text text-anchor="start" x="445.62" y="-573.5" font-family="Monospace" font-size="10.00" fill="GREY">id=XYT2pP2w6tRpoulRJLMA</text>
<text text-anchor="start" x="466.62" y="-563.5" font-family="Monospace" font-size="10.00" fill="GREY">suffix=.fastq.gz</text>
</g>
<!-- dcFMDYfFvi02lqJOhpnR -->
<g id="node13" class="node">
<title>dcFMDYfFvi02lqJOhpnR</title>
<path fill="gainsboro" stroke="#065f46" d="M698.62,-522C698.62,-522 526.62,-522 526.62,-522 520.62,-522 514.62,-516 514.62,-510 514.62,-510 514.62,-486 514.62,-486 514.62,-480 520.62,-474 526.62,-474 526.62,-474 698.62,-474 698.62,-474 704.62,-474 710.62,-480 710.62,-486 710.62,-486 710.62,-510 710.62,-510 710.62,-516 704.62,-522 698.62,-522"/>
<text text-anchor="start" x="580.38" y="-509.5" font-family="Helvetica,sans-Serif" font-size="10.00">🧩 Cell Ranger</text>
<text text-anchor="start" x="543.62" y="-499.5" font-family="Monospace" font-size="10.00" fill="GREY">id=dcFMDYfFvi02lqJOhpnR</text>
<text text-anchor="start" x="522.62" y="-489.5" font-family="Monospace" font-size="10.00" fill="GREY">type=pipeline, user=Test User2</text>
<text text-anchor="start" x="534.62" y="-479.5" font-family="Monospace" font-size="10.00" fill="GREY">run_at=2023&#45;09&#45;26 09:47:57</text>
</g>
<!-- XYT2pP2w6tRpoulRJLMA&#45;&gt;dcFMDYfFvi02lqJOhpnR -->
<g id="edge11" class="edge">
<title>XYT2pP2w6tRpoulRJLMA&#45;&gt;dcFMDYfFvi02lqJOhpnR</title>
<path fill="none" stroke="dimgrey" d="M537.85,-557.75C549.95,-548.24 564.99,-536.43 578.4,-525.89"/>
<polygon fill="dimgrey" stroke="dimgrey" points="579.02,-526.84 581.87,-522.38 576.86,-524.09 579.02,-526.84"/>
</g>
<!-- dcFMDYfFvi02lqJOhpnR&#45;&gt;jXHIVw2v0icOWj9f3SIZ -->
<g id="edge14" class="edge">
<title>dcFMDYfFvi02lqJOhpnR&#45;&gt;jXHIVw2v0icOWj9f3SIZ</title>
<path fill="none" stroke="dimgrey" d="M528.39,-473.58C489.7,-462.83 444.31,-450.21 407.29,-439.92"/>
<polygon fill="dimgrey" stroke="dimgrey" points="408.18,-438.07 402.89,-438.42 407.24,-441.45 408.18,-438.07"/>
</g>
<!-- dcFMDYfFvi02lqJOhpnR&#45;&gt;T9DpktC1R1Gzdbl9ZjAC -->
<g id="edge15" class="edge">
<title>dcFMDYfFvi02lqJOhpnR&#45;&gt;T9DpktC1R1Gzdbl9ZjAC</title>
<path fill="none" stroke="dimgrey" d="M612.62,-473.9C612.62,-464.59 612.62,-453.86 612.62,-444.42"/>
<polygon fill="dimgrey" stroke="dimgrey" points="614.38,-444.44 612.62,-439.44 610.88,-444.44 614.38,-444.44"/>
</g>
<!-- dcFMDYfFvi02lqJOhpnR&#45;&gt;GGgbrVwetQsPr0CsrFxg -->
<g id="edge13" class="edge">
<title>dcFMDYfFvi02lqJOhpnR&#45;&gt;GGgbrVwetQsPr0CsrFxg</title>
<path fill="none" stroke="dimgrey" d="M696.25,-473.58C734.66,-462.83 779.73,-450.21 816.48,-439.92"/>
<polygon fill="dimgrey" stroke="dimgrey" points="816.49,-441.45 820.84,-438.42 815.55,-438.08 816.49,-441.45"/>
</g>
<!-- cNPnUSUqvKm7tgSgRR36 -->
<g id="node14" class="node">
<title>cNPnUSUqvKm7tgSgRR36</title>
<path fill="honeydew" stroke="#065f46" d="M785.88,-596C785.88,-596 633.38,-596 633.38,-596 627.38,-596 621.38,-590 621.38,-584 621.38,-584 621.38,-570 621.38,-570 621.38,-564 627.38,-558 633.38,-558 633.38,-558 785.88,-558 785.88,-558 791.88,-558 797.88,-564 797.88,-570 797.88,-570 797.88,-584 797.88,-584 797.88,-590 791.88,-596 785.88,-596"/>
<text text-anchor="start" x="629.38" y="-583.5" font-family="Helvetica,sans-Serif" font-size="10.00">📄 fastq/perturbseq_R2_001.fastq.gz</text>
<text text-anchor="start" x="640.62" y="-573.5" font-family="Monospace" font-size="10.00" fill="GREY">id=cNPnUSUqvKm7tgSgRR36</text>
<text text-anchor="start" x="661.62" y="-563.5" font-family="Monospace" font-size="10.00" fill="GREY">suffix=.fastq.gz</text>
</g>
<!-- cNPnUSUqvKm7tgSgRR36&#45;&gt;dcFMDYfFvi02lqJOhpnR -->
<g id="edge12" class="edge">
<title>cNPnUSUqvKm7tgSgRR36&#45;&gt;dcFMDYfFvi02lqJOhpnR</title>
<path fill="none" stroke="dimgrey" d="M686.64,-557.75C674.66,-548.24 659.78,-536.43 646.5,-525.89"/>
<polygon fill="dimgrey" stroke="dimgrey" points="648.08,-524.11 643.07,-522.38 645.9,-526.85 648.08,-524.11"/>
</g>
<!-- Wj8JwyFlYI5x2Vo179Nn -->
<g id="node15" class="node">
<title>Wj8JwyFlYI5x2Vo179Nn</title>
<path fill="gainsboro" stroke="#065f46" d="M168.62,-522C168.62,-522 20.63,-522 20.63,-522 14.62,-522 8.62,-516 8.62,-510 8.62,-510 8.62,-486 8.62,-486 8.62,-480 14.62,-474 20.62,-474 20.62,-474 168.62,-474 168.62,-474 174.62,-474 180.62,-480 180.62,-486 180.62,-486 180.62,-510 180.62,-510 180.62,-516 174.62,-522 168.62,-522"/>
<text text-anchor="start" x="22.25" y="-509.5" font-family="Helvetica,sans-Serif" font-size="10.00">🖥️ Upload GWS CRISPRa result</text>
<text text-anchor="start" x="25.62" y="-499.5" font-family="Monospace" font-size="10.00" fill="GREY">id=Wj8JwyFlYI5x2Vo179Nn</text>
<text text-anchor="start" x="19.62" y="-489.5" font-family="Monospace" font-size="10.00" fill="GREY">type=app, user=Test User1</text>
<text text-anchor="start" x="16.62" y="-479.5" font-family="Monospace" font-size="10.00" fill="GREY">run_at=2023&#45;09&#45;26 09:47:52</text>
</g>
<!-- Wj8JwyFlYI5x2Vo179Nn&#45;&gt;xFABqY3vcnHEfCCCvpls -->
<g id="edge16" class="edge">
<title>Wj8JwyFlYI5x2Vo179Nn&#45;&gt;xFABqY3vcnHEfCCCvpls</title>
<path fill="none" stroke="dimgrey" d="M94.62,-473.9C94.62,-464.59 94.62,-453.86 94.62,-444.42"/>
<polygon fill="dimgrey" stroke="dimgrey" points="96.38,-444.44 94.62,-439.44 92.88,-444.44 96.38,-444.44"/>
</g>
<!-- 2yiWwrUOijXnKftY2icT -->
<g id="node16" class="node">
<title>2yiWwrUOijXnKftY2icT</title>
<path fill="gainsboro" stroke="#065f46" d="M697.62,-680C697.62,-680 525.62,-680 525.62,-680 519.62,-680 513.62,-674 513.62,-668 513.62,-668 513.62,-644 513.62,-644 513.62,-638 519.62,-632 525.62,-632 525.62,-632 697.62,-632 697.62,-632 703.62,-632 709.62,-638 709.62,-644 709.62,-644 709.62,-668 709.62,-668 709.62,-674 703.62,-680 697.62,-680"/>
<text text-anchor="start" x="557.62" y="-667.5" font-family="Helvetica,sans-Serif" font-size="10.00">🧩 Chromium 10x upload</text>
<text text-anchor="start" x="542.62" y="-657.5" font-family="Monospace" font-size="10.00" fill="GREY">id=2yiWwrUOijXnKftY2icT</text>
<text text-anchor="start" x="521.62" y="-647.5" font-family="Monospace" font-size="10.00" fill="GREY">type=pipeline, user=Test User1</text>
<text text-anchor="start" x="533.62" y="-637.5" font-family="Monospace" font-size="10.00" fill="GREY">run_at=2023&#45;09&#45;26 09:47:56</text>
</g>
<!-- 2yiWwrUOijXnKftY2icT&#45;&gt;XYT2pP2w6tRpoulRJLMA -->
<g id="edge17" class="edge">
<title>2yiWwrUOijXnKftY2icT&#45;&gt;XYT2pP2w6tRpoulRJLMA</title>
<path fill="none" stroke="dimgrey" d="M582.26,-631.69C569.55,-621.6 554.74,-609.85 542.23,-599.92"/>
<polygon fill="dimgrey" stroke="dimgrey" points="543.74,-598.08 538.74,-596.35 541.56,-600.82 543.74,-598.08"/>
</g>
<!-- 2yiWwrUOijXnKftY2icT&#45;&gt;cNPnUSUqvKm7tgSgRR36 -->
<g id="edge18" class="edge">
<title>2yiWwrUOijXnKftY2icT&#45;&gt;cNPnUSUqvKm7tgSgRR36</title>
<path fill="none" stroke="dimgrey" d="M641.29,-631.69C654.14,-621.6 669.09,-609.85 681.73,-599.92"/>
<polygon fill="dimgrey" stroke="dimgrey" points="682.43,-600.81 685.28,-596.35 680.26,-598.06 682.43,-600.81"/>
</g>
</g>
</svg>
